<mxfile host="www.draw.io" modified="2019-12-19T00:10:27.694Z" agent="Mozilla/5.0 (Windows NT 10.0; Win64; x64) AppleWebKit/537.36 (KHTML, like Gecko) Chrome/78.0.3904.108 Safari/537.36 OPR/65.0.3467.72" etag="N5Vkz3wa9IJTVorb23Yq" version="12.4.3" type="github" pages="1">
  <diagram id="adMyBay1lu6xidjCouD3" name="Model">
    <mxGraphModel dx="5717" dy="5490" grid="1" gridSize="10" guides="1" tooltips="1" connect="1" arrows="1" fold="1" page="1" pageScale="1" pageWidth="850" pageHeight="1100" math="0" shadow="0">
      <root>
        <mxCell id="0"/>
        <mxCell id="1" parent="0"/>
        <mxCell id="xHMap3TiUOP78eLy4zno-150" value="" style="shape=folder;fontStyle=1;spacingTop=10;tabWidth=344;tabHeight=78;tabPosition=left;html=1;fillColor=#d5e8d4;strokeColor=#82b366;opacity=70;" parent="1" vertex="1">
          <mxGeometry x="-3230" y="-3600" width="6390" height="970" as="geometry"/>
        </mxCell>
        <mxCell id="xHMap3TiUOP78eLy4zno-148" value="" style="shape=folder;fontStyle=1;spacingTop=10;tabWidth=344;tabHeight=78;tabPosition=left;html=1;fillColor=#e1d5e7;strokeColor=#9673a6;opacity=70;" parent="1" vertex="1">
          <mxGeometry x="-3240" y="-2503.5" width="6400" height="1650" as="geometry"/>
        </mxCell>
        <mxCell id="AcJz88Ti0jKnVirIfRQa-49" value="" style="shape=folder;fontStyle=1;spacingTop=10;tabWidth=214;tabHeight=82;tabPosition=left;html=1;strokeWidth=1;fillColor=#f8cecc;strokeColor=#b85450;opacity=40;" parent="1" vertex="1">
          <mxGeometry x="-3240" y="-740" width="6400" height="2688" as="geometry"/>
        </mxCell>
        <mxCell id="sXvjfolYUnGrp_yOVfev-73" value="Bibliothek" style="shape=folder;fontStyle=1;spacingTop=10;tabWidth=181;tabHeight=38;tabPosition=left;html=1;strokeColor=#000000;strokeWidth=1;fontSize=12;fillColor=#fff2cc;opacity=50;" parent="1" vertex="1">
          <mxGeometry x="-3020" y="-80" width="1920" height="1411" as="geometry"/>
        </mxCell>
        <mxCell id="gOupwa7_WCO_5UHda2sZ-10" value="hasService" style="endArrow=open;endSize=12;dashed=1;html=1;" parent="1" source="sXvjfolYUnGrp_yOVfev-64" target="4jUEhYQWBBL92VZrlt_O-1" edge="1">
          <mxGeometry width="160" relative="1" as="geometry">
            <mxPoint x="-579.7697368421054" y="94" as="sourcePoint"/>
            <mxPoint x="-820" y="203" as="targetPoint"/>
          </mxGeometry>
        </mxCell>
        <mxCell id="w5dEuc_NeuzI3938pT3K-1" value="" style="shape=folder;fontStyle=1;spacingTop=10;tabWidth=146;tabHeight=31;tabPosition=left;html=1;fillColor=#ffe6cc;strokeColor=#000000;opacity=50;" parent="1" vertex="1">
          <mxGeometry x="620" y="-80" width="2180" height="1780" as="geometry"/>
        </mxCell>
        <mxCell id="1QQ3cwLplbujhVV3ZzxS-45" value="&lt;p style=&quot;margin: 0px ; margin-top: 4px ; text-align: center&quot;&gt;&lt;i&gt;{abstract}&lt;/i&gt;&lt;br&gt;&lt;b&gt;Activity&lt;/b&gt;&lt;/p&gt;&lt;hr size=&quot;1&quot;&gt;&lt;p style=&quot;margin: 0px ; margin-left: 4px&quot;&gt;&lt;span&gt;+ ActivityDone : EventHandler&amp;lt;ActivityArgs&amp;gt;&lt;/span&gt;&lt;br&gt;&lt;/p&gt;&lt;p style=&quot;margin: 0px ; margin-left: 4px&quot;&gt;&lt;span&gt;- buffer : Queue &amp;lt;DataEventArgs&amp;gt;&amp;nbsp;&lt;/span&gt;&lt;/p&gt;&lt;p style=&quot;margin: 0px ; margin-left: 4px&quot;&gt;&lt;span&gt;&lt;br&gt;&lt;/span&gt;&lt;/p&gt;&lt;p style=&quot;margin: 0px ; margin-left: 4px&quot;&gt;&lt;span&gt;&lt;br&gt;&lt;/span&gt;&lt;/p&gt;&lt;p style=&quot;margin: 0px ; margin-left: 4px&quot;&gt;+ DataUpdate(data : DataEventArgs) : void&lt;/p&gt;&lt;p style=&quot;margin: 0px ; margin-left: 4px&quot;&gt;&lt;span&gt;# analyse() : void {abstract}&lt;/span&gt;&lt;br&gt;&lt;/p&gt;&lt;p style=&quot;margin: 0px ; margin-left: 4px&quot;&gt;&lt;br&gt;&lt;/p&gt;" style="verticalAlign=top;align=left;overflow=fill;fontSize=12;fontFamily=Helvetica;html=1;fillColor=#B9E0A5;strokeColor=#000000;opacity=70;" parent="1" vertex="1">
          <mxGeometry x="1046.5" y="937" width="412" height="133" as="geometry"/>
        </mxCell>
        <mxCell id="1QQ3cwLplbujhVV3ZzxS-94" value="RunningActivityThreshold" style="swimlane;fontStyle=1;align=center;verticalAlign=top;childLayout=stackLayout;horizontal=1;startSize=26;horizontalStack=0;resizeParent=1;resizeParentMax=0;resizeLast=0;collapsible=1;marginBottom=0;fillColor=#ffffff;" parent="1" vertex="1">
          <mxGeometry x="1257.5" y="1508.5" width="250" height="82" as="geometry"/>
        </mxCell>
        <mxCell id="1QQ3cwLplbujhVV3ZzxS-96" value="" style="line;strokeWidth=1;fillColor=#ffffff;align=left;verticalAlign=middle;spacingTop=-1;spacingLeft=3;spacingRight=3;rotatable=0;labelPosition=right;points=[];portConstraint=eastwest;" parent="1QQ3cwLplbujhVV3ZzxS-94" vertex="1">
          <mxGeometry y="26" width="250" height="4" as="geometry"/>
        </mxCell>
        <mxCell id="1QQ3cwLplbujhVV3ZzxS-97" value="+ &lt;&lt;create&gt;&gt; RunningActivityThreshold()" style="text;strokeColor=none;fillColor=#ffffff;align=left;verticalAlign=top;spacingLeft=4;spacingRight=4;overflow=hidden;rotatable=0;points=[[0,0.5],[1,0.5]];portConstraint=eastwest;" parent="1QQ3cwLplbujhVV3ZzxS-94" vertex="1">
          <mxGeometry y="30" width="250" height="26" as="geometry"/>
        </mxCell>
        <mxCell id="1QQ3cwLplbujhVV3ZzxS-113" value="- analyse() : void" style="text;strokeColor=none;fillColor=#ffffff;align=left;verticalAlign=top;spacingLeft=4;spacingRight=4;overflow=hidden;rotatable=0;points=[[0,0.5],[1,0.5]];portConstraint=eastwest;" parent="1QQ3cwLplbujhVV3ZzxS-94" vertex="1">
          <mxGeometry y="56" width="250" height="26" as="geometry"/>
        </mxCell>
        <mxCell id="1QQ3cwLplbujhVV3ZzxS-98" value="StepActivityThreshold" style="swimlane;fontStyle=1;align=center;verticalAlign=top;childLayout=stackLayout;horizontal=1;startSize=26;horizontalStack=0;resizeParent=1;resizeParentMax=0;resizeLast=0;collapsible=1;marginBottom=0;fillColor=#ffffff;" parent="1" vertex="1">
          <mxGeometry x="987.5" y="1508.5" width="259" height="82" as="geometry"/>
        </mxCell>
        <mxCell id="1QQ3cwLplbujhVV3ZzxS-100" value="" style="line;strokeWidth=1;fillColor=#ffffff;align=left;verticalAlign=middle;spacingTop=-1;spacingLeft=3;spacingRight=3;rotatable=0;labelPosition=right;points=[];portConstraint=eastwest;" parent="1QQ3cwLplbujhVV3ZzxS-98" vertex="1">
          <mxGeometry y="26" width="259" height="4" as="geometry"/>
        </mxCell>
        <mxCell id="1QQ3cwLplbujhVV3ZzxS-111" value="+ &lt;&lt;create&gt;&gt; StepActivityThreshold()" style="text;strokeColor=none;fillColor=#ffffff;align=left;verticalAlign=top;spacingLeft=4;spacingRight=4;overflow=hidden;rotatable=0;points=[[0,0.5],[1,0.5]];portConstraint=eastwest;" parent="1QQ3cwLplbujhVV3ZzxS-98" vertex="1">
          <mxGeometry y="30" width="259" height="26" as="geometry"/>
        </mxCell>
        <mxCell id="1QQ3cwLplbujhVV3ZzxS-115" value="- analyse() : void" style="text;strokeColor=none;fillColor=#ffffff;align=left;verticalAlign=top;spacingLeft=4;spacingRight=4;overflow=hidden;rotatable=0;points=[[0,0.5],[1,0.5]];portConstraint=eastwest;" parent="1QQ3cwLplbujhVV3ZzxS-98" vertex="1">
          <mxGeometry y="56" width="259" height="26" as="geometry"/>
        </mxCell>
        <mxCell id="1QQ3cwLplbujhVV3ZzxS-51" value="PushUpEventArgs" style="swimlane;fontStyle=1;align=center;verticalAlign=top;childLayout=stackLayout;horizontal=1;startSize=26;horizontalStack=0;resizeParent=1;resizeParentMax=0;resizeLast=0;collapsible=1;marginBottom=0;" parent="1" vertex="1">
          <mxGeometry x="1870.08" y="1214" width="210" height="30" as="geometry">
            <mxRectangle x="20" y="777" width="140" height="26" as="alternateBounds"/>
          </mxGeometry>
        </mxCell>
        <mxCell id="1QQ3cwLplbujhVV3ZzxS-53" value="" style="line;strokeWidth=1;fillColor=none;align=left;verticalAlign=middle;spacingTop=-1;spacingLeft=3;spacingRight=3;rotatable=0;labelPosition=right;points=[];portConstraint=eastwest;" parent="1QQ3cwLplbujhVV3ZzxS-51" vertex="1">
          <mxGeometry y="26" width="210" height="4" as="geometry"/>
        </mxCell>
        <mxCell id="1QQ3cwLplbujhVV3ZzxS-66" value="SitUpEventArgs" style="swimlane;fontStyle=1;align=center;verticalAlign=top;childLayout=stackLayout;horizontal=1;startSize=26;horizontalStack=0;resizeParent=1;resizeParentMax=0;resizeLast=0;collapsible=1;marginBottom=0;" parent="1" vertex="1">
          <mxGeometry x="2337.92" y="1213.5" width="210" height="30" as="geometry"/>
        </mxCell>
        <mxCell id="1QQ3cwLplbujhVV3ZzxS-69" value="" style="line;strokeWidth=1;fillColor=none;align=left;verticalAlign=middle;spacingTop=-1;spacingLeft=3;spacingRight=3;rotatable=0;labelPosition=right;points=[];portConstraint=eastwest;" parent="1QQ3cwLplbujhVV3ZzxS-66" vertex="1">
          <mxGeometry y="26" width="210" height="4" as="geometry"/>
        </mxCell>
        <mxCell id="1QQ3cwLplbujhVV3ZzxS-73" value="RunningEventArgs" style="swimlane;fontStyle=1;align=center;verticalAlign=top;childLayout=stackLayout;horizontal=1;startSize=26;horizontalStack=0;resizeParent=1;resizeParentMax=0;resizeLast=0;collapsible=1;marginBottom=0;" parent="1" vertex="1">
          <mxGeometry x="2330" y="845.5" width="160" height="54" as="geometry"/>
        </mxCell>
        <mxCell id="1QQ3cwLplbujhVV3ZzxS-74" value="+ running : boolean" style="text;strokeColor=none;fillColor=#ffffff;align=left;verticalAlign=top;spacingLeft=4;spacingRight=4;overflow=hidden;rotatable=0;points=[[0,0.5],[1,0.5]];portConstraint=eastwest;" parent="1QQ3cwLplbujhVV3ZzxS-73" vertex="1">
          <mxGeometry y="26" width="160" height="26" as="geometry"/>
        </mxCell>
        <mxCell id="1QQ3cwLplbujhVV3ZzxS-76" value="" style="line;strokeWidth=1;fillColor=none;align=left;verticalAlign=middle;spacingTop=-1;spacingLeft=3;spacingRight=3;rotatable=0;labelPosition=right;points=[];portConstraint=eastwest;" parent="1QQ3cwLplbujhVV3ZzxS-73" vertex="1">
          <mxGeometry y="52" width="160" height="2" as="geometry"/>
        </mxCell>
        <mxCell id="1QQ3cwLplbujhVV3ZzxS-79" value="«interface»&lt;br&gt;&lt;b&gt;ActivityArgs&lt;br&gt;&lt;/b&gt;" style="html=1;" parent="1" vertex="1">
          <mxGeometry x="2154" y="850.5" width="110" height="50" as="geometry"/>
        </mxCell>
        <mxCell id="1QQ3cwLplbujhVV3ZzxS-83" value="StepEventArgs" style="swimlane;fontStyle=1;align=center;verticalAlign=top;childLayout=stackLayout;horizontal=1;startSize=26;horizontalStack=0;resizeParent=1;resizeParentMax=0;resizeLast=0;collapsible=1;marginBottom=0;" parent="1" vertex="1">
          <mxGeometry x="2104" y="1213.5" width="210" height="30" as="geometry"/>
        </mxCell>
        <mxCell id="1QQ3cwLplbujhVV3ZzxS-85" value="" style="line;strokeWidth=1;fillColor=none;align=left;verticalAlign=middle;spacingTop=-1;spacingLeft=3;spacingRight=3;rotatable=0;labelPosition=right;points=[];portConstraint=eastwest;" parent="1QQ3cwLplbujhVV3ZzxS-83" vertex="1">
          <mxGeometry y="26" width="210" height="4" as="geometry"/>
        </mxCell>
        <mxCell id="1QQ3cwLplbujhVV3ZzxS-87" value="&lt;p style=&quot;margin: 0px ; margin-top: 4px ; text-align: center&quot;&gt;&lt;i&gt;&amp;lt;&amp;lt;Interface&amp;gt;&amp;gt;&lt;/i&gt;&lt;br&gt;&lt;b&gt;CountableActivityArgs&lt;/b&gt;&lt;/p&gt;&lt;p style=&quot;margin: 0px ; margin-left: 4px&quot;&gt;&lt;br&gt;&lt;/p&gt;" style="verticalAlign=top;align=left;overflow=fill;fontSize=12;fontFamily=Helvetica;html=1;" parent="1" vertex="1">
          <mxGeometry x="2070" y="969.5" width="278" height="50.5" as="geometry"/>
        </mxCell>
        <mxCell id="1QQ3cwLplbujhVV3ZzxS-88" value="Extends" style="endArrow=block;endSize=16;endFill=0;html=1;entryX=0.5;entryY=1;entryDx=0;entryDy=0;exitX=0.5;exitY=0;exitDx=0;exitDy=0;" parent="1" source="1QQ3cwLplbujhVV3ZzxS-87" target="1QQ3cwLplbujhVV3ZzxS-79" edge="1">
          <mxGeometry width="160" relative="1" as="geometry">
            <mxPoint x="2257.5" y="929" as="sourcePoint"/>
            <mxPoint x="2417.5" y="929" as="targetPoint"/>
          </mxGeometry>
        </mxCell>
        <mxCell id="1QQ3cwLplbujhVV3ZzxS-89" value="" style="endArrow=block;dashed=1;endFill=0;endSize=12;html=1;entryX=0.5;entryY=1;entryDx=0;entryDy=0;exitX=0.5;exitY=0;exitDx=0;exitDy=0;" parent="1" source="1QQ3cwLplbujhVV3ZzxS-83" target="1QQ3cwLplbujhVV3ZzxS-87" edge="1">
          <mxGeometry width="160" relative="1" as="geometry">
            <mxPoint x="2209" y="1119" as="sourcePoint"/>
            <mxPoint x="2627.5" y="1079" as="targetPoint"/>
          </mxGeometry>
        </mxCell>
        <mxCell id="1QQ3cwLplbujhVV3ZzxS-93" value="" style="endArrow=block;dashed=1;endFill=0;endSize=12;html=1;entryX=1;entryY=0.5;entryDx=0;entryDy=0;" parent="1" source="1QQ3cwLplbujhVV3ZzxS-73" target="1QQ3cwLplbujhVV3ZzxS-79" edge="1">
          <mxGeometry width="160" relative="1" as="geometry">
            <mxPoint x="2372.5" y="875.5" as="sourcePoint"/>
            <mxPoint x="2674" y="878" as="targetPoint"/>
          </mxGeometry>
        </mxCell>
        <mxCell id="1QQ3cwLplbujhVV3ZzxS-135" value="+ activities" style="endArrow=block;endFill=1;html=1;align=left;verticalAlign=top;entryX=0.5;entryY=0;entryDx=0;entryDy=0;" parent="1" source="1QQ3cwLplbujhVV3ZzxS-1" target="1QQ3cwLplbujhVV3ZzxS-45" edge="1">
          <mxGeometry x="0.6069" y="29" relative="1" as="geometry">
            <mxPoint x="1371.5" y="882.5" as="sourcePoint"/>
            <mxPoint x="1601.5" y="1052.5" as="targetPoint"/>
            <mxPoint as="offset"/>
          </mxGeometry>
        </mxCell>
        <mxCell id="n2-QzeIZX0uXDNsSAh_k-9" value="{abstract}&lt;br&gt;&lt;b&gt;AbstractSitUpActivity&lt;/b&gt;" style="html=1;" parent="1" vertex="1">
          <mxGeometry x="755.5" y="1315.5" width="181" height="50" as="geometry"/>
        </mxCell>
        <mxCell id="n2-QzeIZX0uXDNsSAh_k-11" value="{abstract}&lt;br&gt;&lt;b&gt;AbstractPushUpActivity&lt;/b&gt;" style="html=1;" parent="1" vertex="1">
          <mxGeometry x="1556.5" y="1315.5" width="170" height="50" as="geometry"/>
        </mxCell>
        <mxCell id="n2-QzeIZX0uXDNsSAh_k-12" value="{abstract}&lt;br&gt;&lt;b&gt;AbstractRunningActivity&lt;/b&gt;" style="html=1;" parent="1" vertex="1">
          <mxGeometry x="1293" y="1316.5" width="179" height="50" as="geometry"/>
        </mxCell>
        <mxCell id="n2-QzeIZX0uXDNsSAh_k-14" value="{abstract}&lt;br&gt;&lt;b&gt;AbstractStepActivity&lt;/b&gt;" style="html=1;" parent="1" vertex="1">
          <mxGeometry x="1028.5" y="1315.5" width="180" height="50" as="geometry"/>
        </mxCell>
        <mxCell id="n2-QzeIZX0uXDNsSAh_k-16" value="Extends" style="endArrow=block;endSize=16;endFill=0;html=1;entryX=0.5;entryY=1;entryDx=0;entryDy=0;exitX=0.5;exitY=0;exitDx=0;exitDy=0;" parent="1" source="pG1MvSHpeQ2TRdzguChj-24" target="n2-QzeIZX0uXDNsSAh_k-9" edge="1">
          <mxGeometry width="160" relative="1" as="geometry">
            <mxPoint x="762.5" y="1507.5" as="sourcePoint"/>
            <mxPoint x="895" y="1378.5" as="targetPoint"/>
          </mxGeometry>
        </mxCell>
        <mxCell id="n2-QzeIZX0uXDNsSAh_k-17" value="Extends" style="endArrow=block;endSize=16;endFill=0;html=1;exitX=0.5;exitY=0;exitDx=0;exitDy=0;entryX=0.5;entryY=1;entryDx=0;entryDy=0;" parent="1" source="1QQ3cwLplbujhVV3ZzxS-98" target="n2-QzeIZX0uXDNsSAh_k-14" edge="1">
          <mxGeometry width="160" relative="1" as="geometry">
            <mxPoint x="1071" y="1307.5" as="sourcePoint"/>
            <mxPoint x="1279" y="1242" as="targetPoint"/>
          </mxGeometry>
        </mxCell>
        <mxCell id="n2-QzeIZX0uXDNsSAh_k-18" value="Extends" style="endArrow=block;endSize=16;endFill=0;html=1;exitX=0.5;exitY=0;exitDx=0;exitDy=0;entryX=0.5;entryY=1;entryDx=0;entryDy=0;" parent="1" source="1QQ3cwLplbujhVV3ZzxS-94" target="n2-QzeIZX0uXDNsSAh_k-12" edge="1">
          <mxGeometry width="160" relative="1" as="geometry">
            <mxPoint x="1095" y="1425.5" as="sourcePoint"/>
            <mxPoint x="1198" y="1208.5" as="targetPoint"/>
          </mxGeometry>
        </mxCell>
        <mxCell id="n2-QzeIZX0uXDNsSAh_k-19" value="Extends" style="endArrow=block;endSize=16;endFill=0;html=1;entryX=0.5;entryY=1;entryDx=0;entryDy=0;exitX=0.5;exitY=0;exitDx=0;exitDy=0;" parent="1" source="pG1MvSHpeQ2TRdzguChj-15" target="n2-QzeIZX0uXDNsSAh_k-11" edge="1">
          <mxGeometry width="160" relative="1" as="geometry">
            <mxPoint x="1476.5" y="1440.5" as="sourcePoint"/>
            <mxPoint x="1198" y="1208.5" as="targetPoint"/>
          </mxGeometry>
        </mxCell>
        <mxCell id="sXvjfolYUnGrp_yOVfev-4" value="Extends" style="endArrow=block;endSize=16;endFill=0;html=1;entryX=0.5;entryY=1;entryDx=0;entryDy=0;" parent="1" target="1QQ3cwLplbujhVV3ZzxS-45" edge="1">
          <mxGeometry x="-0.0235" y="-3" width="160" relative="1" as="geometry">
            <mxPoint x="1253" y="1200" as="sourcePoint"/>
            <mxPoint x="994" y="1187" as="targetPoint"/>
            <mxPoint as="offset"/>
          </mxGeometry>
        </mxCell>
        <mxCell id="sXvjfolYUnGrp_yOVfev-15" value="&lt;p style=&quot;margin: 0px ; margin-top: 4px ; text-align: center&quot;&gt;&lt;i&gt;&amp;lt;&amp;lt;Interface&amp;gt;&amp;gt;&lt;/i&gt;&lt;br&gt;&lt;b&gt;IDataBaseConnection&lt;/b&gt;&lt;/p&gt;&lt;hr size=&quot;1&quot;&gt;&lt;p style=&quot;margin: 0px ; margin-left: 4px&quot;&gt;&lt;span&gt;+ SaveDBEntry(entry : DBEntry) : void&lt;/span&gt;&lt;br&gt;&lt;/p&gt;&lt;p style=&quot;margin: 0px ; margin-left: 4px&quot;&gt;+ GetAllEntriesAsync(): Task&amp;lt;List&amp;lt;DBEntry&amp;gt;&amp;gt;&lt;/p&gt;&lt;p style=&quot;margin: 0px ; margin-left: 4px&quot;&gt;+ GetMostRecentEntriesAsync(amount: int) : Task&amp;lt;List&amp;lt;DBEntry&amp;gt;&amp;gt;&lt;/p&gt;&lt;p style=&quot;margin: 0px ; margin-left: 4px&quot;&gt;+ ImportTrainingData(file : FileData) : void&lt;/p&gt;&lt;p style=&quot;margin: 0px ; margin-left: 4px&quot;&gt;+ ExportTrainingData(path : String) : void&lt;/p&gt;&lt;p style=&quot;margin: 0px ; margin-left: 4px&quot;&gt;+ DeleteAllEntries() : void&lt;/p&gt;&lt;p style=&quot;margin: 0px ; margin-left: 4px&quot;&gt;&lt;span style=&quot;color: rgba(0 , 0 , 0 , 0) ; font-family: monospace ; font-size: 0px&quot;&gt;3CmxGraphModel%3E%3Croot%3E%3CmxCell%20id%3D%220%22%2F%3E%3CmxCell%20id%3D%221%22%20parent%3D%220%22%2F%3E%3CmxCell%20id%3D%222%22%20value%3D%22%2B%20getEntriesAsync()%3A%20Task%26lt%3BList%26lt%3BDBEntry%26gt%3B%26gt%3B%22%20style%3D%22text%3BstrokeColor%3Dnone%3BfillColor%3Dnone%3Balign%3Dleft%3BverticalAlign%3Dtop%3BspacingLeft%3D4%3BspacingRight%3D4%3Boverflow%3Dhidden%3Brotatable%3D0%3Bpoints%3D%5B%5B0%2C0.5%5D%2C%5B1%2C0.5%5D%5D%3BportConstraint%3Deastwest%3B%22%20vertex%3D%221%22%20parent%3D%221%22%3E%3CmxGeometry%20x%3D%221080%22%20y%3D%22493%22%20width%3D%22250%22%20height%3D%2226%22%20as%3D%22geometry%22%2F%3E%3C%2FmxCell%3E%3C%2Froot%3E%3C%2FmxGraphModel%3E&lt;/span&gt;&lt;/p&gt;&lt;span style=&quot;color: rgba(0 , 0 , 0 , 0) ; font-family: monospace ; font-size: 0px&quot;&gt;%3CmxGraphModel%3E%3Croot%3E%3CmxCell%20id%3D%220%22%2F%3E%3CmxCell%20id%3D%221%22%20parent%3D%220%22%2F%3E%3CmxCell%20id%3D%222%22%20value%3D%22%2B%20getEntriesAsync()%3A%20Task%26lt%3BList%26lt%3BDBEntry%26gt%3B%26gt%3B%22%20style%3D%22text%3BstrokeColor%3Dnone%3BfillColor%3Dnone%3Balign%3Dleft%3BverticalAlign%3Dtop%3BspacingLeft%3D4%3BspacingRight%3D4%3Boverflow%3Dhidden%3Brotatable%3D0%3Bpoints%3D%5B%5B0%2C0.5%5D%2C%5B1%2C0.5%5D%5D%3BportConstraint%3Deastwest%3B%22%20vertex%3D%221%22%20parent%3D%221%22%3E%3CmxGeometry%20x%3D%221080%22%20y%3D%22493%22%20width%3D%22250%22%20height%3D%2226%22%20as%3D%22geometry%22%2F%3E%3C%2FmxCell%3E%3C%2Froot%3E%3C%2FmxGraphModel%3E&lt;/span&gt;&lt;span style=&quot;color: rgba(0 , 0 , 0 , 0) ; font-family: monospace ; font-size: 0px&quot;&gt;%3CmxGraphModel%3E%3Croot%3E%3CmxCell%20id%3D%220%22%2F%3E%3CmxCell%20id%3D%221%22%20parent%3D%220%22%2F%3E%3CmxCell%20id%3D%222%22%20value%3D%22%2B%20getEntriesAsync()%3A%20Task%26lt%3BList%26lt%3BDBEntry%26gt%3B%26gt%3B%22%20style%3D%22text%3BstrokeColor%3Dnone%3BfillColor%3Dnone%3Balign%3Dleft%3BverticalAlign%3Dtop%3BspacingLeft%3D4%3BspacingRight%3D4%3Boverflow%3Dhidden%3Brotatable%3D0%3Bpoints%3D%5B%5B0%2C0.5%5D%2C%5B1%2C0.5%5D%5D%3BportConstraint%3Deastwest%3B%22%20vertex%3D%221%22%20parent%3D%221%22%3E%3CmxGeometry%20x%3D%221080%22%20y%3D%22493%22%20width%3D%22250%22%20height%3D%2226%22%20as%3D%22geometry%22%2F%3E%3C%2FmxCell%3E%3C%2Froot%3E%3C%2FmxGraphModel%3E&lt;/span&gt;" style="verticalAlign=top;align=left;overflow=fill;fontSize=12;fontFamily=Helvetica;html=1;fillColor=#dae8fc;strokeColor=#6c8ebf;" parent="1" vertex="1">
          <mxGeometry x="-760" y="375.5" width="367" height="133.5" as="geometry"/>
        </mxCell>
        <mxCell id="sXvjfolYUnGrp_yOVfev-22" value="&lt;p style=&quot;margin: 0px ; margin-top: 4px ; text-align: center&quot;&gt;&lt;b&gt;SQLiteAsyncConnection&lt;/b&gt;&lt;/p&gt;" style="verticalAlign=top;align=left;overflow=fill;fontSize=12;fontFamily=Helvetica;html=1;" parent="1" vertex="1">
          <mxGeometry x="-661.5" y="751.5" width="170" height="30" as="geometry"/>
        </mxCell>
        <mxCell id="sXvjfolYUnGrp_yOVfev-26" value="" style="endArrow=block;dashed=1;endFill=0;endSize=12;html=1;" parent="1" source="sXvjfolYUnGrp_yOVfev-16" target="sXvjfolYUnGrp_yOVfev-15" edge="1">
          <mxGeometry width="160" relative="1" as="geometry">
            <mxPoint x="-273.5" y="453.5" as="sourcePoint"/>
            <mxPoint x="-233.5" y="478.5" as="targetPoint"/>
          </mxGeometry>
        </mxCell>
        <mxCell id="sXvjfolYUnGrp_yOVfev-16" value="DatabaseConnection" style="swimlane;fontStyle=1;align=center;verticalAlign=top;childLayout=stackLayout;horizontal=1;startSize=26;horizontalStack=0;resizeParent=1;resizeParentMax=0;resizeLast=0;collapsible=1;marginBottom=0;" parent="1" vertex="1">
          <mxGeometry x="-686.5" y="594.5" width="220" height="84" as="geometry"/>
        </mxCell>
        <mxCell id="sXvjfolYUnGrp_yOVfev-17" value="- PATH : string" style="text;strokeColor=none;fillColor=none;align=left;verticalAlign=top;spacingLeft=4;spacingRight=4;overflow=hidden;rotatable=0;points=[[0,0.5],[1,0.5]];portConstraint=eastwest;" parent="sXvjfolYUnGrp_yOVfev-16" vertex="1">
          <mxGeometry y="26" width="220" height="24" as="geometry"/>
        </mxCell>
        <mxCell id="sXvjfolYUnGrp_yOVfev-18" value="" style="line;strokeWidth=1;fillColor=none;align=left;verticalAlign=middle;spacingTop=-1;spacingLeft=3;spacingRight=3;rotatable=0;labelPosition=right;points=[];portConstraint=eastwest;" parent="sXvjfolYUnGrp_yOVfev-16" vertex="1">
          <mxGeometry y="50" width="220" height="8" as="geometry"/>
        </mxCell>
        <mxCell id="pG1MvSHpeQ2TRdzguChj-30" value="+ &lt;&lt;create&gt;&gt; DatabaseConnection() " style="text;strokeColor=none;fillColor=none;align=left;verticalAlign=top;spacingLeft=4;spacingRight=4;overflow=hidden;rotatable=0;points=[[0,0.5],[1,0.5]];portConstraint=eastwest;" parent="sXvjfolYUnGrp_yOVfev-16" vertex="1">
          <mxGeometry y="58" width="220" height="26" as="geometry"/>
        </mxCell>
        <mxCell id="sXvjfolYUnGrp_yOVfev-40" value="DBEntry" style="swimlane;fontStyle=1;align=center;verticalAlign=top;childLayout=stackLayout;horizontal=1;startSize=26;horizontalStack=0;resizeParent=1;resizeParentMax=0;resizeLast=0;collapsible=1;marginBottom=0;fontSize=11;" parent="1" vertex="1">
          <mxGeometry x="-1055" y="373.25" width="240" height="138" as="geometry"/>
        </mxCell>
        <mxCell id="sXvjfolYUnGrp_yOVfev-41" value="+ Date : DateTime" style="text;strokeColor=none;fillColor=none;align=left;verticalAlign=top;spacingLeft=4;spacingRight=4;overflow=hidden;rotatable=0;points=[[0,0.5],[1,0.5]];portConstraint=eastwest;" parent="sXvjfolYUnGrp_yOVfev-40" vertex="1">
          <mxGeometry y="26" width="240" height="26" as="geometry"/>
        </mxCell>
        <mxCell id="sXvjfolYUnGrp_yOVfev-46" value="+ TrainingsData: Dictionary&lt;String, int&gt;" style="text;strokeColor=none;fillColor=none;align=left;verticalAlign=top;spacingLeft=4;spacingRight=4;overflow=hidden;rotatable=0;points=[[0,0.5],[1,0.5]];portConstraint=eastwest;" parent="sXvjfolYUnGrp_yOVfev-40" vertex="1">
          <mxGeometry y="52" width="240" height="26" as="geometry"/>
        </mxCell>
        <mxCell id="sXvjfolYUnGrp_yOVfev-42" value="" style="line;strokeWidth=1;fillColor=none;align=left;verticalAlign=middle;spacingTop=-1;spacingLeft=3;spacingRight=3;rotatable=0;labelPosition=right;points=[];portConstraint=eastwest;" parent="sXvjfolYUnGrp_yOVfev-40" vertex="1">
          <mxGeometry y="78" width="240" height="8" as="geometry"/>
        </mxCell>
        <mxCell id="sXvjfolYUnGrp_yOVfev-43" value="+ ToString() : string" style="text;strokeColor=none;fillColor=none;align=left;verticalAlign=top;spacingLeft=4;spacingRight=4;overflow=hidden;rotatable=0;points=[[0,0.5],[1,0.5]];portConstraint=eastwest;" parent="sXvjfolYUnGrp_yOVfev-40" vertex="1">
          <mxGeometry y="86" width="240" height="26" as="geometry"/>
        </mxCell>
        <mxCell id="4Cl_2U6d4L0L1prgbwU7-1" value="+ ParseDBEntry(entry : String) : DBEntry" style="text;strokeColor=none;fillColor=none;align=left;verticalAlign=top;spacingLeft=4;spacingRight=4;overflow=hidden;rotatable=0;points=[[0,0.5],[1,0.5]];portConstraint=eastwest;fontStyle=4" parent="sXvjfolYUnGrp_yOVfev-40" vertex="1">
          <mxGeometry y="112" width="240" height="26" as="geometry"/>
        </mxCell>
        <mxCell id="sXvjfolYUnGrp_yOVfev-51" value="" style="line;strokeWidth=1;fillColor=none;align=left;verticalAlign=middle;spacingTop=-1;spacingLeft=3;spacingRight=3;rotatable=0;labelPosition=right;points=[];portConstraint=eastwest;fontSize=11;" parent="1" vertex="1">
          <mxGeometry x="1046.5" y="1020" width="412" height="8" as="geometry"/>
        </mxCell>
        <mxCell id="sXvjfolYUnGrp_yOVfev-64" value="ServiceManager" style="swimlane;fontStyle=1;align=center;verticalAlign=top;childLayout=stackLayout;horizontal=1;startSize=26;horizontalStack=0;resizeParent=1;resizeParentMax=0;resizeLast=0;collapsible=1;marginBottom=0;strokeWidth=1;fontSize=12;fillColor=#f8cecc;strokeColor=#b85450;" parent="1" vertex="1">
          <mxGeometry x="-660" y="-262" width="550" height="106" as="geometry">
            <mxRectangle x="-687" y="350" width="120" height="26" as="alternateBounds"/>
          </mxGeometry>
        </mxCell>
        <mxCell id="AcJz88Ti0jKnVirIfRQa-7" value="- serviceProvider : ServiceProvider" style="text;strokeColor=none;fillColor=#f8cecc;align=left;verticalAlign=top;spacingLeft=4;spacingRight=4;overflow=hidden;rotatable=0;points=[[0,0.5],[1,0.5]];portConstraint=eastwest;fontStyle=4" parent="sXvjfolYUnGrp_yOVfev-64" vertex="1">
          <mxGeometry y="26" width="550" height="26" as="geometry"/>
        </mxCell>
        <mxCell id="AcJz88Ti0jKnVirIfRQa-6" value="+ ServiceProvider : ServiceProvider" style="text;strokeColor=none;fillColor=#f8cecc;align=left;verticalAlign=top;spacingLeft=4;spacingRight=4;overflow=hidden;rotatable=0;points=[[0,0.5],[1,0.5]];portConstraint=eastwest;fontStyle=4" parent="sXvjfolYUnGrp_yOVfev-64" vertex="1">
          <mxGeometry y="52" width="550" height="26" as="geometry"/>
        </mxCell>
        <mxCell id="sXvjfolYUnGrp_yOVfev-66" value="" style="line;strokeWidth=1;align=left;verticalAlign=middle;spacingTop=-1;spacingLeft=3;spacingRight=3;rotatable=0;labelPosition=right;points=[];portConstraint=eastwest;fillColor=#f8cecc;strokeColor=#b85450;" parent="sXvjfolYUnGrp_yOVfev-64" vertex="1">
          <mxGeometry y="78" width="550" height="2" as="geometry"/>
        </mxCell>
        <mxCell id="sXvjfolYUnGrp_yOVfev-67" value="- &lt;&lt;create&gt;&gt; ServiceManager()" style="text;strokeColor=none;fillColor=#f8cecc;align=left;verticalAlign=top;spacingLeft=4;spacingRight=4;overflow=hidden;rotatable=0;points=[[0,0.5],[1,0.5]];portConstraint=eastwest;" parent="sXvjfolYUnGrp_yOVfev-64" vertex="1">
          <mxGeometry y="80" width="550" height="26" as="geometry"/>
        </mxCell>
        <mxCell id="4jUEhYQWBBL92VZrlt_O-1" value="&lt;p style=&quot;margin: 0px ; margin-top: 4px ; text-align: center&quot;&gt;&amp;lt;&amp;lt;interface&amp;gt;&amp;gt;&lt;b&gt;&lt;br&gt;&lt;/b&gt;&lt;/p&gt;&lt;p style=&quot;margin: 0px ; margin-top: 4px ; text-align: center&quot;&gt;&lt;b&gt;IEarablesConnetion&lt;/b&gt;&lt;/p&gt;&lt;hr size=&quot;1&quot;&gt;&lt;p style=&quot;margin: 0px ; margin-left: 4px&quot;&gt;&lt;span&gt;+ IMUDataRecieved: EventHandler&amp;lt;DataEventArgs&amp;gt;&lt;/span&gt;&lt;br&gt;&lt;/p&gt;&lt;p style=&quot;margin: 0px 0px 0px 4px&quot;&gt;+ ButtonPressed: EventHandler &amp;lt;ButtonEventArgs&amp;gt;&lt;/p&gt;&lt;p style=&quot;margin: 0px 0px 0px 4px&quot;&gt;+ DeviceConnectionStateChanged: EventHandler&amp;lt;DeviceEventArgs&amp;gt;&lt;/p&gt;&lt;p style=&quot;margin: 0px 0px 0px 4px&quot;&gt;+ Ble: IBluetoothLE&lt;/p&gt;&lt;p style=&quot;margin: 0px 0px 0px 4px&quot;&gt;+ Adapter : IAdapter&lt;/p&gt;&lt;p style=&quot;margin: 0px 0px 0px 4px&quot;&gt;+ Device: IDevice&lt;/p&gt;&lt;hr size=&quot;1&quot;&gt;&lt;p style=&quot;margin: 0px 0px 0px 4px&quot;&gt;+ &amp;lt;&amp;lt;create&amp;gt;&amp;gt;EarablesConnection()&lt;/p&gt;&lt;p style=&quot;margin: 0px 0px 0px 4px&quot;&gt;+ StartScanning(): DeviceList&amp;lt;List&amp;gt;&lt;/p&gt;&lt;p style=&quot;margin: 0px 0px 0px 4px&quot;&gt;+ ConnectToDevice(device: IDevice): Boolean&lt;/p&gt;&lt;p style=&quot;margin: 0px 0px 0px 4px&quot;&gt;+ DisconnectFromDevice(): Boolean&lt;/p&gt;&lt;p style=&quot;margin: 0px ; margin-left: 4px&quot;&gt;+ StartSampling(): Boolean&lt;/p&gt;&lt;p style=&quot;margin: 0px ; margin-left: 4px&quot;&gt;+ StopSampling(): Boolean&lt;/p&gt;&lt;p style=&quot;margin: 0px ; margin-left: 4px&quot;&gt;+ SetSamplingrate(heart int): Boolean&lt;/p&gt;&lt;p style=&quot;margin: 0px ; margin-left: 4px&quot;&gt;+ SetLowPassFilterAccelerometer(accelerometerLPF LPF_Accelerometer): Boolean&lt;/p&gt;&lt;p style=&quot;margin: 0px ; margin-left: 4px&quot;&gt;+ GetLowPassFilterAccelerometer(): LPF_Accelerometer&lt;br&gt;&lt;/p&gt;&lt;p style=&quot;margin: 0px ; margin-left: 4px&quot;&gt;+ SetLowPassFilterGyroscope(gyroscopeLPF LPF_Gyroscope): Boolean&lt;br&gt;&lt;/p&gt;&lt;p style=&quot;margin: 0px ; margin-left: 4px&quot;&gt;+ GetLowPassFilterGyroscope(): LPF_Gyroscope&lt;br&gt;&lt;/p&gt;&lt;p style=&quot;margin: 0px ; margin-left: 4px&quot;&gt;+ GetBatteryVoltage(): int&lt;/p&gt;&lt;p style=&quot;margin: 0px ; margin-left: 4px&quot;&gt;# OnIMUDataReceived(): void&lt;/p&gt;&lt;p style=&quot;margin: 0px ; margin-left: 4px&quot;&gt;# OnPushButtonPressed(): void&lt;/p&gt;&lt;p style=&quot;margin: 0px ; margin-left: 4px&quot;&gt;# OnDeviceConnectedChanged(): void&lt;/p&gt;&lt;p style=&quot;margin: 0px ; margin-left: 4px&quot;&gt;&lt;br&gt;&lt;/p&gt;&lt;p style=&quot;margin: 0px ; margin-left: 4px&quot;&gt;&amp;nbsp;&lt;/p&gt;" style="verticalAlign=top;align=left;overflow=fill;fontSize=12;fontFamily=Helvetica;html=1;rounded=0;shadow=0;comic=0;labelBackgroundColor=none;strokeWidth=1;fillColor=#dae8fc;strokeColor=#6c8ebf;" parent="1" vertex="1">
          <mxGeometry x="-2200" y="265.5" width="510" height="393" as="geometry"/>
        </mxCell>
        <mxCell id="4jUEhYQWBBL92VZrlt_O-2" value="&lt;p style=&quot;margin: 0px ; margin-top: 4px ; text-align: center&quot;&gt;&amp;lt;&amp;lt;static&amp;gt;&amp;gt;&lt;/p&gt;&lt;p style=&quot;margin: 0px ; margin-top: 4px ; text-align: center&quot;&gt;&lt;b&gt;Constants&lt;/b&gt;&lt;/p&gt;&lt;hr size=&quot;1&quot;&gt;&lt;p style=&quot;margin: 0px ; margin-left: 4px&quot;&gt;+ START/STOP_IMU_SAMPLIG_CHAR: String&lt;/p&gt;&lt;p style=&quot;margin: 0px ; margin-left: 4px&quot;&gt;+ SENSORDATA_CHAR: String&lt;/p&gt;&lt;p style=&quot;margin: 0px ; margin-left: 4px&quot;&gt;+ PUSHBUTTON_CHAR : String&lt;/p&gt;&lt;p style=&quot;margin: 0px ; margin-left: 4px&quot;&gt;+ BATTERY_CHAR: String&lt;br&gt;&lt;/p&gt;&lt;p style=&quot;margin: 0px ; margin-left: 4px&quot;&gt;+ ACCELEROMETER_GYROSCOPE_LPF_CHAR: String&lt;/p&gt;&lt;p style=&quot;margin: 0px ; margin-left: 4px&quot;&gt;+ NOTIFICATION_DESCRIPTOR; String&lt;/p&gt;&lt;p style=&quot;margin: 0px ; margin-left: 4px&quot;&gt;+ ACCES_SERVICE: String&lt;/p&gt;&lt;p style=&quot;margin: 0px ; margin-left: 4px&quot;&gt;+ NOCH_EIN_SERVICE_SERVICE: String&lt;/p&gt;&lt;p style=&quot;margin: 0px ; margin-left: 4px&quot;&gt;&lt;br&gt;&lt;/p&gt;&lt;hr size=&quot;1&quot;&gt;&lt;p style=&quot;margin: 0px ; margin-left: 4px&quot;&gt;&lt;br&gt;&lt;/p&gt;" style="verticalAlign=top;align=left;overflow=fill;fontSize=12;fontFamily=Helvetica;html=1;rounded=0;shadow=0;comic=0;labelBackgroundColor=none;strokeWidth=1" parent="1" vertex="1">
          <mxGeometry x="-2500" y="4.5" width="380" height="174" as="geometry"/>
        </mxCell>
        <mxCell id="4jUEhYQWBBL92VZrlt_O-3" value="&lt;p style=&quot;margin: 0px ; margin-top: 4px ; text-align: center&quot;&gt;&lt;b&gt;IMUDataEntry&lt;/b&gt;&lt;/p&gt;&lt;hr size=&quot;1&quot;&gt;&lt;p style=&quot;margin: 0px ; margin-left: 4px&quot;&gt;&lt;br&gt;&lt;/p&gt;&lt;br&gt;&lt;hr size=&quot;1&quot;&gt;&lt;p style=&quot;margin: 0px ; margin-left: 4px&quot;&gt;&lt;br&gt;&lt;/p&gt;" style="verticalAlign=top;align=left;overflow=fill;fontSize=12;fontFamily=Helvetica;html=1;rounded=0;shadow=0;comic=0;labelBackgroundColor=none;strokeWidth=1" parent="1" vertex="1">
          <mxGeometry x="-1697.5" y="980.5" width="215" height="35" as="geometry"/>
        </mxCell>
        <mxCell id="4jUEhYQWBBL92VZrlt_O-4" value="&lt;p style=&quot;margin: 0px ; margin-top: 4px ; text-align: center&quot;&gt;&lt;b&gt;ConfigContainer&lt;/b&gt;&lt;/p&gt;&lt;hr size=&quot;1&quot;&gt;&lt;p style=&quot;margin: 0px ; margin-left: 4px&quot;&gt;+ Samplerate: int&lt;/p&gt;&lt;p style=&quot;margin: 0px 0px 0px 4px&quot;&gt;+ GyroscopeLPF: LPF_Gyroscope&lt;/p&gt;&lt;p style=&quot;margin: 0px 0px 0px 4px&quot;&gt;+ AccelerometerLPF: LPF_Accelerometer&lt;/p&gt;&lt;hr size=&quot;1&quot;&gt;&lt;p style=&quot;margin: 0px ; margin-left: 4px&quot;&gt;&lt;br&gt;&lt;/p&gt;" style="verticalAlign=top;align=left;overflow=fill;fontSize=12;fontFamily=Helvetica;html=1;rounded=0;shadow=0;comic=0;labelBackgroundColor=none;strokeWidth=1" parent="1" vertex="1">
          <mxGeometry x="-1570" y="285.5" width="235" height="90" as="geometry"/>
        </mxCell>
        <mxCell id="4jUEhYQWBBL92VZrlt_O-9" value="BLE_Plugin" style="rounded=0;whiteSpace=wrap;html=1;" parent="1" vertex="1">
          <mxGeometry x="-2550" y="278" width="120" height="60" as="geometry"/>
        </mxCell>
        <mxCell id="4jUEhYQWBBL92VZrlt_O-11" value="Bibliothek" style="text;html=1;strokeColor=none;fillColor=none;align=center;verticalAlign=middle;whiteSpace=wrap;rounded=0;" parent="1" vertex="1">
          <mxGeometry x="-3050" y="-80" width="180" height="38" as="geometry"/>
        </mxCell>
        <mxCell id="4jUEhYQWBBL92VZrlt_O-12" value="&lt;p style=&quot;margin: 0px ; margin-top: 4px ; text-align: center&quot;&gt;&lt;i&gt;&amp;lt;&amp;lt;Interface&amp;gt;&amp;gt;&lt;/i&gt;&lt;br&gt;&lt;b&gt;IManager&lt;/b&gt;&lt;/p&gt;&lt;hr size=&quot;1&quot;&gt;&lt;p style=&quot;margin: 0px ; margin-left: 4px&quot;&gt;&lt;br&gt;&lt;/p&gt;&lt;hr size=&quot;1&quot;&gt;&lt;p style=&quot;margin: 0px ; margin-left: 4px&quot;&gt;- serviceRegistration&lt;span&gt;(out collection IServiceCollection)&lt;/span&gt;&lt;/p&gt;" style="verticalAlign=top;align=left;overflow=fill;fontSize=12;fontFamily=Helvetica;html=1;" parent="1" vertex="1">
          <mxGeometry x="820" y="138" width="310" height="90" as="geometry"/>
        </mxCell>
        <mxCell id="4jUEhYQWBBL92VZrlt_O-15" value="" style="endArrow=block;dashed=1;endFill=0;endSize=12;html=1;" parent="1" source="sXvjfolYUnGrp_yOVfev-64" target="4jUEhYQWBBL92VZrlt_O-12" edge="1">
          <mxGeometry width="160" relative="1" as="geometry">
            <mxPoint x="-140" y="488" as="sourcePoint"/>
            <mxPoint x="-110" y="528" as="targetPoint"/>
          </mxGeometry>
        </mxCell>
        <mxCell id="AcJz88Ti0jKnVirIfRQa-48" value="implements" style="text;html=1;align=center;verticalAlign=middle;resizable=0;points=[];;labelBackgroundColor=#ffffff;" parent="4jUEhYQWBBL92VZrlt_O-15" vertex="1" connectable="0">
          <mxGeometry x="0.2025" y="3" relative="1" as="geometry">
            <mxPoint x="-85.43" y="-25.02" as="offset"/>
          </mxGeometry>
        </mxCell>
        <mxCell id="XCtTQCzG72HCAti6Qc9I-2" value="&lt;p style=&quot;margin: 0px ; margin-top: 4px ; text-align: center&quot;&gt;&lt;b&gt;Gyroscope&lt;/b&gt;&lt;/p&gt;&lt;hr size=&quot;1&quot;&gt;&lt;p style=&quot;margin: 0px 0px 0px 4px&quot;&gt;+ Deg/s_X: float&lt;/p&gt;&lt;p style=&quot;margin: 0px 0px 0px 4px&quot;&gt;+ Deg/s_Y: float&lt;br&gt;&lt;/p&gt;&lt;p style=&quot;margin: 0px 0px 0px 4px&quot;&gt;+ Deg/s_Z: float&lt;br&gt;&lt;/p&gt;&lt;hr size=&quot;1&quot;&gt;&lt;p style=&quot;margin: 0px ; margin-left: 4px&quot;&gt;&lt;br&gt;&lt;/p&gt;" style="verticalAlign=top;align=left;overflow=fill;fontSize=12;fontFamily=Helvetica;html=1;" parent="1" vertex="1">
          <mxGeometry x="-1990" y="955.5" width="160" height="85" as="geometry"/>
        </mxCell>
        <mxCell id="XCtTQCzG72HCAti6Qc9I-3" value="&lt;p style=&quot;margin: 0px ; margin-top: 4px ; text-align: center&quot;&gt;&lt;b&gt;Accelerometer&lt;/b&gt;&lt;/p&gt;&lt;hr size=&quot;1&quot;&gt;&lt;p style=&quot;margin: 0px 0px 0px 4px&quot;&gt;+ M/s^2_X: float&lt;br&gt;&lt;/p&gt;&lt;p style=&quot;margin: 0px 0px 0px 4px&quot;&gt;+ M/s^2_Y: float&lt;br&gt;&lt;/p&gt;&lt;p style=&quot;margin: 0px 0px 0px 4px&quot;&gt;+ M/s^2_Z: float&lt;br&gt;&lt;/p&gt;&lt;p style=&quot;margin: 0px 0px 0px 4px&quot;&gt;+ G_X: float&lt;/p&gt;&lt;p style=&quot;margin: 0px 0px 0px 4px&quot;&gt;+ G_Y: float&lt;br&gt;&lt;/p&gt;&lt;p style=&quot;margin: 0px 0px 0px 4px&quot;&gt;+ G_Z: float&lt;br&gt;&lt;/p&gt;&lt;hr size=&quot;1&quot;&gt;&lt;p style=&quot;margin: 0px ; margin-left: 4px&quot;&gt;&lt;br&gt;&lt;/p&gt;" style="verticalAlign=top;align=left;overflow=fill;fontSize=12;fontFamily=Helvetica;html=1;" parent="1" vertex="1">
          <mxGeometry x="-1320" y="928.5" width="160" height="139" as="geometry"/>
        </mxCell>
        <mxCell id="XCtTQCzG72HCAti6Qc9I-15" value="&lt;p style=&quot;margin: 0px ; margin-top: 4px ; text-align: center&quot;&gt;&amp;lt;&amp;lt;static&amp;gt;&amp;gt;&lt;b&gt;&lt;br&gt;&lt;/b&gt;&lt;/p&gt;&lt;p style=&quot;margin: 0px ; margin-top: 4px ; text-align: center&quot;&gt;&lt;b&gt;IMUDataExtractor&lt;/b&gt;&lt;/p&gt;&lt;hr size=&quot;1&quot;&gt;&lt;p style=&quot;margin: 0px ; margin-left: 4px&quot;&gt;&lt;br&gt;&lt;/p&gt;&lt;hr size=&quot;1&quot;&gt;&lt;p style=&quot;margin: 0px ; margin-left: 4px&quot;&gt;+ ExtractIMUDataString(byteString: int, accScaleFactor&lt;/p&gt;&lt;p style=&quot;margin: 0px ; margin-left: 4px&quot;&gt;: int, GyroScaleFactor): IMUDataEntry&lt;/p&gt;" style="verticalAlign=top;align=left;overflow=fill;fontSize=12;fontFamily=Helvetica;html=1;" parent="1" vertex="1">
          <mxGeometry x="-1743.5" y="774.5" width="307" height="106" as="geometry"/>
        </mxCell>
        <mxCell id="gOupwa7_WCO_5UHda2sZ-3" value="Bekommt Daten von der Bibliothek per Event und schickt diese an die Aktivitäten weiter:&lt;br&gt;&lt;span style=&quot;white-space: nowrap&quot;&gt;&lt;br&gt;onIMUDataRecieved&lt;/span&gt;(object s, DataEventArgs args){&lt;br&gt;&amp;nbsp; foreach(Activity activity in activities)&lt;br&gt;&amp;nbsp; &amp;nbsp; &amp;nbsp; &amp;nbsp;activity.DataUpdate(args);&lt;br&gt;}" style="shape=note;whiteSpace=wrap;html=1;size=14;verticalAlign=top;align=left;spacingTop=-6;" parent="1" vertex="1">
          <mxGeometry x="716.5" y="653.5" width="287" height="100" as="geometry"/>
        </mxCell>
        <mxCell id="gOupwa7_WCO_5UHda2sZ-7" value="hasService" style="endArrow=open;endSize=12;dashed=1;html=1;entryX=0.5;entryY=0;entryDx=0;entryDy=0;" parent="1" source="sXvjfolYUnGrp_yOVfev-64" target="AcJz88Ti0jKnVirIfRQa-32" edge="1">
          <mxGeometry width="160" relative="1" as="geometry">
            <mxPoint x="733" y="248.5" as="sourcePoint"/>
            <mxPoint x="-201" y="265.5000000000002" as="targetPoint"/>
          </mxGeometry>
        </mxCell>
        <mxCell id="gOupwa7_WCO_5UHda2sZ-8" value="hasService" style="endArrow=open;endSize=12;dashed=1;html=1;" parent="1" source="sXvjfolYUnGrp_yOVfev-64" target="sXvjfolYUnGrp_yOVfev-15" edge="1">
          <mxGeometry width="160" relative="1" as="geometry">
            <mxPoint x="939.0556621880996" y="380" as="sourcePoint"/>
            <mxPoint x="823" y="597.5" as="targetPoint"/>
          </mxGeometry>
        </mxCell>
        <mxCell id="1QQ3cwLplbujhVV3ZzxS-32" value="DataEventArgs" style="swimlane;fontStyle=1;align=center;verticalAlign=top;childLayout=stackLayout;horizontal=1;startSize=26;horizontalStack=0;resizeParent=1;resizeParentMax=0;resizeLast=0;collapsible=1;marginBottom=0;fillColor=#ffffff;" parent="1" vertex="1">
          <mxGeometry x="-2803.5" y="928.5" width="350" height="106" as="geometry"/>
        </mxCell>
        <mxCell id="1QQ3cwLplbujhVV3ZzxS-33" value="+ Data: IMUDataEntry" style="text;strokeColor=none;fillColor=#ffffff;align=left;verticalAlign=top;spacingLeft=4;spacingRight=4;overflow=hidden;rotatable=0;points=[[0,0.5],[1,0.5]];portConstraint=eastwest;" parent="1QQ3cwLplbujhVV3ZzxS-32" vertex="1">
          <mxGeometry y="26" width="350" height="26" as="geometry"/>
        </mxCell>
        <mxCell id="1QQ3cwLplbujhVV3ZzxS-36" value="+ Configs: ConfigContainer" style="text;strokeColor=none;fillColor=#ffffff;align=left;verticalAlign=top;spacingLeft=4;spacingRight=4;overflow=hidden;rotatable=0;points=[[0,0.5],[1,0.5]];portConstraint=eastwest;" parent="1QQ3cwLplbujhVV3ZzxS-32" vertex="1">
          <mxGeometry y="52" width="350" height="26" as="geometry"/>
        </mxCell>
        <mxCell id="1QQ3cwLplbujhVV3ZzxS-34" value="" style="line;strokeWidth=1;fillColor=#ffffff;align=left;verticalAlign=middle;spacingTop=-1;spacingLeft=3;spacingRight=3;rotatable=0;labelPosition=right;points=[];portConstraint=eastwest;" parent="1QQ3cwLplbujhVV3ZzxS-32" vertex="1">
          <mxGeometry y="78" width="350" height="2" as="geometry"/>
        </mxCell>
        <mxCell id="1QQ3cwLplbujhVV3ZzxS-35" value="+ DataEventArgs (data: DataEntry, configs: ConfigContainer)" style="text;strokeColor=none;fillColor=#ffffff;align=left;verticalAlign=top;spacingLeft=4;spacingRight=4;overflow=hidden;rotatable=0;points=[[0,0.5],[1,0.5]];portConstraint=eastwest;" parent="1QQ3cwLplbujhVV3ZzxS-32" vertex="1">
          <mxGeometry y="80" width="350" height="26" as="geometry"/>
        </mxCell>
        <mxCell id="1QQ3cwLplbujhVV3ZzxS-1" value="ActivityManager" style="swimlane;fontStyle=1;align=center;verticalAlign=top;childLayout=stackLayout;horizontal=1;startSize=28;horizontalStack=0;resizeParent=1;resizeParentMax=0;resizeLast=0;collapsible=1;marginBottom=0;" parent="1" vertex="1">
          <mxGeometry x="1050.5" y="758.5" width="408" height="54" as="geometry">
            <mxRectangle width="140" height="28" as="alternateBounds"/>
          </mxGeometry>
        </mxCell>
        <mxCell id="1QQ3cwLplbujhVV3ZzxS-4" value="+ &lt;&lt;create&gt;&gt; ActivityManager()" style="text;align=left;verticalAlign=top;spacingLeft=4;spacingRight=4;overflow=hidden;rotatable=0;points=[[0,0.5],[1,0.5]];portConstraint=eastwest;fillColor=#ffffff;" parent="1QQ3cwLplbujhVV3ZzxS-1" vertex="1">
          <mxGeometry y="28" width="408" height="26" as="geometry"/>
        </mxCell>
        <mxCell id="gOupwa7_WCO_5UHda2sZ-13" value="&lt;font style=&quot;font-size: 14px&quot;&gt;Erweiterungsmodul&lt;/font&gt;" style="text;html=1;align=center;verticalAlign=middle;resizable=0;points=[];;autosize=1;" parent="1" vertex="1">
          <mxGeometry x="716.5" y="326" width="140" height="20" as="geometry"/>
        </mxCell>
        <mxCell id="4xYlC9JivESuF4BA-wcZ-3" value="&lt;p style=&quot;margin: 0px ; margin-top: 4px ; text-align: center&quot;&gt;&lt;b&gt;&amp;lt;&amp;lt;enumeration&amp;gt;&amp;gt;&lt;/b&gt;&lt;/p&gt;&lt;p style=&quot;margin: 0px ; margin-top: 4px ; text-align: center&quot;&gt;&lt;b&gt;LPF_Gyroskope&lt;/b&gt;&lt;/p&gt;&lt;hr size=&quot;1&quot;&gt;&lt;p style=&quot;margin: 0px ; margin-left: 4px&quot;&gt;250Hz&lt;/p&gt;&lt;p style=&quot;margin: 0px ; margin-left: 4px&quot;&gt;184Hz&lt;/p&gt;&lt;p style=&quot;margin: 0px ; margin-left: 4px&quot;&gt;92Hz&lt;/p&gt;&lt;p style=&quot;margin: 0px ; margin-left: 4px&quot;&gt;41Hz&lt;/p&gt;&lt;p style=&quot;margin: 0px ; margin-left: 4px&quot;&gt;20Hz&lt;/p&gt;&lt;p style=&quot;margin: 0px ; margin-left: 4px&quot;&gt;10Hz&lt;/p&gt;&lt;p style=&quot;margin: 0px ; margin-left: 4px&quot;&gt;5Hz&lt;/p&gt;&lt;p style=&quot;margin: 0px ; margin-left: 4px&quot;&gt;3600Hz&lt;/p&gt;&lt;p style=&quot;margin: 0px ; margin-left: 4px&quot;&gt;OFF&lt;/p&gt;&lt;p style=&quot;margin: 0px ; margin-left: 4px&quot;&gt;&lt;br&gt;&lt;/p&gt;" style="verticalAlign=top;align=left;overflow=fill;fontSize=12;fontFamily=Helvetica;html=1;" parent="1" vertex="1">
          <mxGeometry x="-2053.5" y="4.5" width="160" height="181" as="geometry"/>
        </mxCell>
        <mxCell id="4xYlC9JivESuF4BA-wcZ-7" value="Die Activity speichert einkommende IMUDaten in einer Queue, falls bei activityDone sich ein Event registriert hat.&lt;br&gt;" style="shape=note;whiteSpace=wrap;html=1;size=14;verticalAlign=top;align=left;spacingTop=-6;" parent="1" vertex="1">
          <mxGeometry x="806.5" y="940" width="220" height="70" as="geometry"/>
        </mxCell>
        <mxCell id="lx2fqZ4H967W4USDWjPS-2" value="hasService" style="endArrow=open;endSize=12;dashed=1;html=1;entryX=0;entryY=0.5;entryDx=0;entryDy=0;" parent="1" source="sXvjfolYUnGrp_yOVfev-64" target="AcJz88Ti0jKnVirIfRQa-26" edge="1">
          <mxGeometry width="160" relative="1" as="geometry">
            <mxPoint x="-153.70000000000027" y="341.5519999999999" as="sourcePoint"/>
            <mxPoint x="1100" y="233" as="targetPoint"/>
          </mxGeometry>
        </mxCell>
        <mxCell id="B6ssprMDw7lv90oObgQ3-1" value="ButtonEventArgs" style="swimlane;fontStyle=1;align=center;verticalAlign=top;childLayout=stackLayout;horizontal=1;startSize=26;horizontalStack=0;resizeParent=1;resizeParentMax=0;resizeLast=0;collapsible=1;marginBottom=0;fillColor=#ffffff;" parent="1" vertex="1">
          <mxGeometry x="-2803.5" y="838" width="350" height="34" as="geometry"/>
        </mxCell>
        <mxCell id="B6ssprMDw7lv90oObgQ3-3" value="" style="line;strokeWidth=1;fillColor=#ffffff;align=left;verticalAlign=middle;spacingTop=-1;spacingLeft=3;spacingRight=3;rotatable=0;labelPosition=right;points=[];portConstraint=eastwest;" parent="B6ssprMDw7lv90oObgQ3-1" vertex="1">
          <mxGeometry y="26" width="350" height="8" as="geometry"/>
        </mxCell>
        <mxCell id="B6ssprMDw7lv90oObgQ3-6" value="DeviceEventArgs" style="swimlane;fontStyle=1;align=center;verticalAlign=top;childLayout=stackLayout;horizontal=1;startSize=26;horizontalStack=0;resizeParent=1;resizeParentMax=0;resizeLast=0;collapsible=1;marginBottom=0;fillColor=#ffffff;" parent="1" vertex="1">
          <mxGeometry x="-2803.5" y="678" width="350" height="106" as="geometry"/>
        </mxCell>
        <mxCell id="B6ssprMDw7lv90oObgQ3-11" value="+ Connected: Boolean" style="text;align=left;verticalAlign=top;spacingLeft=4;spacingRight=4;overflow=hidden;rotatable=0;points=[[0,0.5],[1,0.5]];portConstraint=eastwest;fillColor=#ffffff;" parent="B6ssprMDw7lv90oObgQ3-6" vertex="1">
          <mxGeometry y="26" width="350" height="26" as="geometry"/>
        </mxCell>
        <mxCell id="B6ssprMDw7lv90oObgQ3-7" value="+ DeviceName: String&#xa;" style="text;align=left;verticalAlign=top;spacingLeft=4;spacingRight=4;overflow=hidden;rotatable=0;points=[[0,0.5],[1,0.5]];portConstraint=eastwest;fillColor=#ffffff;" parent="B6ssprMDw7lv90oObgQ3-6" vertex="1">
          <mxGeometry y="52" width="350" height="26" as="geometry"/>
        </mxCell>
        <mxCell id="B6ssprMDw7lv90oObgQ3-8" value="" style="line;strokeWidth=1;align=left;verticalAlign=middle;spacingTop=-1;spacingLeft=3;spacingRight=3;rotatable=0;labelPosition=right;points=[];portConstraint=eastwest;fillColor=#ffffff;" parent="B6ssprMDw7lv90oObgQ3-6" vertex="1">
          <mxGeometry y="78" width="350" height="2" as="geometry"/>
        </mxCell>
        <mxCell id="XVDAX8zGeFt2py3kwn7P-1" value="+ DataEventArgs (connected: Boolean, deviceName: String)" style="text;strokeColor=none;fillColor=#ffffff;align=left;verticalAlign=top;spacingLeft=4;spacingRight=4;overflow=hidden;rotatable=0;points=[[0,0.5],[1,0.5]];portConstraint=eastwest;" parent="B6ssprMDw7lv90oObgQ3-6" vertex="1">
          <mxGeometry y="80" width="350" height="26" as="geometry"/>
        </mxCell>
        <mxCell id="B6ssprMDw7lv90oObgQ3-12" value="&lt;p style=&quot;margin: 0px ; margin-top: 4px ; text-align: center&quot;&gt;&lt;b&gt;&amp;lt;&amp;lt;enumeration&amp;gt;&amp;gt;&lt;/b&gt;&lt;/p&gt;&lt;p style=&quot;margin: 0px ; margin-top: 4px ; text-align: center&quot;&gt;&lt;b&gt;LPF_Accelerometer&lt;/b&gt;&lt;/p&gt;&lt;hr size=&quot;1&quot;&gt;&lt;p style=&quot;margin: 0px ; margin-left: 4px&quot;&gt;460Hz&lt;/p&gt;&lt;p style=&quot;margin: 0px ; margin-left: 4px&quot;&gt;184Hz&lt;/p&gt;&lt;p style=&quot;margin: 0px ; margin-left: 4px&quot;&gt;92Hz&lt;/p&gt;&lt;p style=&quot;margin: 0px ; margin-left: 4px&quot;&gt;41Hz&lt;/p&gt;&lt;p style=&quot;margin: 0px ; margin-left: 4px&quot;&gt;20Hz&lt;/p&gt;&lt;p style=&quot;margin: 0px ; margin-left: 4px&quot;&gt;10Hz&lt;/p&gt;&lt;p style=&quot;margin: 0px ; margin-left: 4px&quot;&gt;5Hz&lt;/p&gt;&lt;p style=&quot;margin: 0px ; margin-left: 4px&quot;&gt;OFF&lt;/p&gt;&lt;p style=&quot;margin: 0px ; margin-left: 4px&quot;&gt;&lt;br&gt;&lt;/p&gt;" style="verticalAlign=top;align=left;overflow=fill;fontSize=12;fontFamily=Helvetica;html=1;" parent="1" vertex="1">
          <mxGeometry x="-1826.5" y="4.5" width="160" height="170" as="geometry"/>
        </mxCell>
        <mxCell id="B6ssprMDw7lv90oObgQ3-17" value="" style="endArrow=none;html=1;edgeStyle=orthogonalEdgeStyle;" parent="1" source="4jUEhYQWBBL92VZrlt_O-1" target="4xYlC9JivESuF4BA-wcZ-3" edge="1">
          <mxGeometry relative="1" as="geometry">
            <mxPoint x="-1670" y="238.5" as="sourcePoint"/>
            <mxPoint x="-1510" y="238.5" as="targetPoint"/>
            <Array as="points">
              <mxPoint x="-1973" y="228.5"/>
              <mxPoint x="-1973" y="228.5"/>
            </Array>
          </mxGeometry>
        </mxCell>
        <mxCell id="B6ssprMDw7lv90oObgQ3-18" value="" style="resizable=0;html=1;align=left;verticalAlign=bottom;labelBackgroundColor=#ffffff;fontSize=10;" parent="B6ssprMDw7lv90oObgQ3-17" connectable="0" vertex="1">
          <mxGeometry x="-1" relative="1" as="geometry"/>
        </mxCell>
        <mxCell id="B6ssprMDw7lv90oObgQ3-20" value="" style="endArrow=none;html=1;edgeStyle=orthogonalEdgeStyle;fontSize=12;" parent="1" source="4jUEhYQWBBL92VZrlt_O-1" target="B6ssprMDw7lv90oObgQ3-12" edge="1">
          <mxGeometry relative="1" as="geometry">
            <mxPoint x="-1620" y="218.5" as="sourcePoint"/>
            <mxPoint x="-1460" y="218.5" as="targetPoint"/>
            <Array as="points">
              <mxPoint x="-1800" y="218.5"/>
              <mxPoint x="-1720" y="218.5"/>
            </Array>
          </mxGeometry>
        </mxCell>
        <mxCell id="B6ssprMDw7lv90oObgQ3-21" value="" style="resizable=0;html=1;align=left;verticalAlign=bottom;labelBackgroundColor=#ffffff;fontSize=10;" parent="B6ssprMDw7lv90oObgQ3-20" connectable="0" vertex="1">
          <mxGeometry x="-1" relative="1" as="geometry"/>
        </mxCell>
        <mxCell id="B6ssprMDw7lv90oObgQ3-23" value="" style="endArrow=none;html=1;edgeStyle=orthogonalEdgeStyle;fontSize=12;" parent="1" source="4jUEhYQWBBL92VZrlt_O-1" target="4jUEhYQWBBL92VZrlt_O-4" edge="1">
          <mxGeometry relative="1" as="geometry">
            <mxPoint x="-1700" y="618.5" as="sourcePoint"/>
            <mxPoint x="-1540" y="618.5" as="targetPoint"/>
            <Array as="points">
              <mxPoint x="-1580" y="338.5"/>
              <mxPoint x="-1580" y="338.5"/>
            </Array>
          </mxGeometry>
        </mxCell>
        <mxCell id="B6ssprMDw7lv90oObgQ3-24" value="" style="resizable=0;html=1;align=left;verticalAlign=bottom;labelBackgroundColor=#ffffff;fontSize=10;" parent="B6ssprMDw7lv90oObgQ3-23" connectable="0" vertex="1">
          <mxGeometry x="-1" relative="1" as="geometry"/>
        </mxCell>
        <mxCell id="B6ssprMDw7lv90oObgQ3-25" value="+ Configuration" style="resizable=0;html=1;align=right;verticalAlign=bottom;labelBackgroundColor=#ffffff;fontSize=12;" parent="B6ssprMDw7lv90oObgQ3-23" connectable="0" vertex="1">
          <mxGeometry x="1" relative="1" as="geometry"/>
        </mxCell>
        <mxCell id="B6ssprMDw7lv90oObgQ3-26" value="" style="endArrow=none;html=1;edgeStyle=orthogonalEdgeStyle;fontSize=12;" parent="1" source="4jUEhYQWBBL92VZrlt_O-1" target="4jUEhYQWBBL92VZrlt_O-2" edge="1">
          <mxGeometry relative="1" as="geometry">
            <mxPoint x="-2390" y="218.5" as="sourcePoint"/>
            <mxPoint x="-2230" y="218.5" as="targetPoint"/>
            <Array as="points">
              <mxPoint x="-2140" y="211.5"/>
              <mxPoint x="-2230" y="211.5"/>
            </Array>
          </mxGeometry>
        </mxCell>
        <mxCell id="B6ssprMDw7lv90oObgQ3-28" value="" style="resizable=0;html=1;align=right;verticalAlign=bottom;labelBackgroundColor=#ffffff;fontSize=13;" parent="B6ssprMDw7lv90oObgQ3-26" connectable="0" vertex="1">
          <mxGeometry x="1" relative="1" as="geometry">
            <mxPoint x="-10.5" y="30" as="offset"/>
          </mxGeometry>
        </mxCell>
        <mxCell id="B6ssprMDw7lv90oObgQ3-30" value="Use" style="endArrow=open;endSize=12;dashed=1;html=1;fontSize=13;exitX=-0.008;exitY=0.104;exitDx=0;exitDy=0;exitPerimeter=0;" parent="1" source="4jUEhYQWBBL92VZrlt_O-1" target="4jUEhYQWBBL92VZrlt_O-9" edge="1">
          <mxGeometry width="160" relative="1" as="geometry">
            <mxPoint x="-2410" y="668.5" as="sourcePoint"/>
            <mxPoint x="-2250" y="668.5" as="targetPoint"/>
          </mxGeometry>
        </mxCell>
        <mxCell id="B6ssprMDw7lv90oObgQ3-31" value="" style="endArrow=none;html=1;edgeStyle=orthogonalEdgeStyle;fontSize=13;" parent="1" source="4jUEhYQWBBL92VZrlt_O-3" target="XCtTQCzG72HCAti6Qc9I-2" edge="1">
          <mxGeometry relative="1" as="geometry">
            <mxPoint x="-1770" y="895.5" as="sourcePoint"/>
            <mxPoint x="-1610" y="895.5" as="targetPoint"/>
          </mxGeometry>
        </mxCell>
        <mxCell id="B6ssprMDw7lv90oObgQ3-33" value="+ Gyro" style="resizable=0;html=1;align=right;verticalAlign=bottom;labelBackgroundColor=#ffffff;fontSize=12;" parent="B6ssprMDw7lv90oObgQ3-31" connectable="0" vertex="1">
          <mxGeometry x="1" relative="1" as="geometry">
            <mxPoint x="45.5" y="-1" as="offset"/>
          </mxGeometry>
        </mxCell>
        <mxCell id="B6ssprMDw7lv90oObgQ3-34" value="" style="endArrow=none;html=1;edgeStyle=orthogonalEdgeStyle;fontSize=12;exitX=1;exitY=0.5;exitDx=0;exitDy=0;" parent="1" source="4jUEhYQWBBL92VZrlt_O-3" target="XCtTQCzG72HCAti6Qc9I-3" edge="1">
          <mxGeometry relative="1" as="geometry">
            <mxPoint x="-1470" y="845.5" as="sourcePoint"/>
            <mxPoint x="-1310" y="845.5" as="targetPoint"/>
          </mxGeometry>
        </mxCell>
        <mxCell id="B6ssprMDw7lv90oObgQ3-36" value="+ Acc" style="resizable=0;html=1;align=right;verticalAlign=bottom;labelBackgroundColor=#ffffff;fontSize=12;" parent="B6ssprMDw7lv90oObgQ3-34" connectable="0" vertex="1">
          <mxGeometry x="1" relative="1" as="geometry">
            <mxPoint x="-10" y="-0.5" as="offset"/>
          </mxGeometry>
        </mxCell>
        <mxCell id="B6ssprMDw7lv90oObgQ3-39" value="" style="endArrow=none;html=1;edgeStyle=orthogonalEdgeStyle;fontSize=12;" parent="1" source="4jUEhYQWBBL92VZrlt_O-1" target="XCtTQCzG72HCAti6Qc9I-15" edge="1">
          <mxGeometry relative="1" as="geometry">
            <mxPoint x="-1530" y="688.5" as="sourcePoint"/>
            <mxPoint x="-1370" y="688.5" as="targetPoint"/>
            <Array as="points">
              <mxPoint x="-1720" y="768"/>
              <mxPoint x="-1720" y="768"/>
            </Array>
          </mxGeometry>
        </mxCell>
        <mxCell id="B6ssprMDw7lv90oObgQ3-41" value="" style="resizable=0;html=1;align=right;verticalAlign=bottom;labelBackgroundColor=#ffffff;fontSize=12;" parent="B6ssprMDw7lv90oObgQ3-39" connectable="0" vertex="1">
          <mxGeometry x="1" relative="1" as="geometry"/>
        </mxCell>
        <mxCell id="B6ssprMDw7lv90oObgQ3-45" value="ExtractIMUDataString erstellt aus der Bitfolge ein IMUDataEntry, berechnert desen Werte und schickt die Klasse als rückgabewert zurück" style="shape=note;whiteSpace=wrap;html=1;size=14;verticalAlign=top;align=left;spacingTop=-6;fontSize=12;" parent="1" vertex="1">
          <mxGeometry x="-1430" y="799.25" width="240" height="56.5" as="geometry"/>
        </mxCell>
        <mxCell id="B6ssprMDw7lv90oObgQ3-46" value="" style="endArrow=none;html=1;edgeStyle=orthogonalEdgeStyle;fontSize=12;" parent="1" source="XCtTQCzG72HCAti6Qc9I-15" target="4jUEhYQWBBL92VZrlt_O-3" edge="1">
          <mxGeometry relative="1" as="geometry">
            <mxPoint x="-1240" y="698.5" as="sourcePoint"/>
            <mxPoint x="-1080" y="698.5" as="targetPoint"/>
          </mxGeometry>
        </mxCell>
        <mxCell id="B6ssprMDw7lv90oObgQ3-49" value="- on IMUDataRecived&lt;br&gt;- onPushButtonPressed&lt;br&gt;- OnDeviceConnecetdCHanged&lt;br&gt;sind die Methoden die aufgerufen werden wenn die Esense Nachrichten schicken also wenn neue IMUDaten vorligen, der Knopf gedrückt wurde oder sich der Verindungsstatus änder&lt;br&gt;Diese Methoden benachrichtigen auch alle Listener, die sich für das jeweilige Event registriert haben" style="shape=note;whiteSpace=wrap;html=1;size=14;verticalAlign=top;align=left;spacingTop=-6;fontSize=12;" parent="1" vertex="1">
          <mxGeometry x="-1666.5" y="512.5" width="260" height="146" as="geometry"/>
        </mxCell>
        <mxCell id="B6ssprMDw7lv90oObgQ3-50" value="ble, adapter und device sind Atribute aus dem BLE_Plugin die benötigt werden, um eine verbindung herzustellen" style="shape=note;whiteSpace=wrap;html=1;size=14;verticalAlign=top;align=left;spacingTop=-6;fontSize=12;" parent="1" vertex="1">
          <mxGeometry x="-2360" y="215.5" width="152" height="70" as="geometry"/>
        </mxCell>
        <mxCell id="G_59dn4MlfXa50lpd_8I-5" value="&lt;p style=&quot;margin: 0px ; margin-top: 4px ; text-align: center&quot;&gt;&lt;b&gt;Characteristics&lt;/b&gt;&lt;/p&gt;&lt;hr size=&quot;1&quot;&gt;&lt;p style=&quot;margin: 0px ; margin-left: 4px&quot;&gt;+ Start/StopIMUSamplingChar: ICharakteristic&lt;/p&gt;&lt;p style=&quot;margin: 0px ; margin-left: 4px&quot;&gt;+ SensordataChar: ICharakteristic&lt;/p&gt;&lt;p style=&quot;margin: 0px ; margin-left: 4px&quot;&gt;+ PushbuttonChar: ICharacterisitc&lt;/p&gt;&lt;p style=&quot;margin: 0px ; margin-left: 4px&quot;&gt;+ BatteryChar: ICharakteristic&lt;/p&gt;&lt;p style=&quot;margin: 0px ; margin-left: 4px&quot;&gt;+ AccelerometerGyroscopeLPFChar: ICahrakteristic&lt;/p&gt;&lt;hr size=&quot;1&quot;&gt;&lt;p style=&quot;margin: 0px ; margin-left: 4px&quot;&gt;&lt;br&gt;&lt;/p&gt;" style="verticalAlign=top;align=left;overflow=fill;fontSize=12;fontFamily=Helvetica;html=1;" parent="1" vertex="1">
          <mxGeometry x="-2628.5" y="483" width="288.5" height="123" as="geometry"/>
        </mxCell>
        <mxCell id="G_59dn4MlfXa50lpd_8I-9" value="" style="endArrow=none;html=1;edgeStyle=orthogonalEdgeStyle;" parent="1" source="4jUEhYQWBBL92VZrlt_O-1" target="G_59dn4MlfXa50lpd_8I-5" edge="1">
          <mxGeometry relative="1" as="geometry">
            <mxPoint x="-2480" y="418.5" as="sourcePoint"/>
            <mxPoint x="-2320" y="418.5" as="targetPoint"/>
            <Array as="points">
              <mxPoint x="-2220" y="544.5"/>
              <mxPoint x="-2220" y="544.5"/>
            </Array>
          </mxGeometry>
        </mxCell>
        <mxCell id="G_59dn4MlfXa50lpd_8I-11" value="+ Characteristics" style="resizable=0;html=1;align=right;verticalAlign=bottom;labelBackgroundColor=#ffffff;fontSize=12;direction=south;" parent="G_59dn4MlfXa50lpd_8I-9" connectable="0" vertex="1">
          <mxGeometry x="1" relative="1" as="geometry">
            <mxPoint x="100" y="-0.5" as="offset"/>
          </mxGeometry>
        </mxCell>
        <mxCell id="G_59dn4MlfXa50lpd_8I-12" value="Die Characterisitken werden ein mal geholt und dann als Variable gespeichert um sich nicht jedes mal neu anzufordern, wenn man sie brauch. Der Type ICarakteristik befindet sich in dem BLE_Plugin" style="shape=note;whiteSpace=wrap;html=1;size=14;verticalAlign=top;align=left;spacingTop=-6;fontSize=12;" parent="1" vertex="1">
          <mxGeometry x="-2835" y="512.5" width="195" height="86" as="geometry"/>
        </mxCell>
        <mxCell id="G_59dn4MlfXa50lpd_8I-13" value="In der Methode connectToDevice werden alle Charakteristiken geladen um sie nicht immer neu laden zu müssen wenn sie gebraucht werden" style="shape=note;whiteSpace=wrap;html=1;size=14;verticalAlign=top;align=left;spacingTop=-6;fontSize=12;" parent="1" vertex="1">
          <mxGeometry x="-2319" y="316.5" width="109" height="131.5" as="geometry"/>
        </mxCell>
        <mxCell id="pG1MvSHpeQ2TRdzguChj-6" value="&lt;p style=&quot;margin: 0px ; margin-top: 4px ; text-align: center&quot;&gt;&lt;b&gt;User&lt;/b&gt;&lt;/p&gt;&lt;hr size=&quot;1&quot;&gt;&lt;p style=&quot;margin: 0px ; margin-left: 4px&quot;&gt;+ Username: String&lt;/p&gt;&lt;p style=&quot;margin: 0px ; margin-left: 4px&quot;&gt;+ Stephlength: int&lt;/p&gt;&lt;hr size=&quot;1&quot;&gt;&lt;p style=&quot;margin: 0px ; margin-left: 4px&quot;&gt;+ ToString() : String&lt;/p&gt;&lt;p style=&quot;margin: 0px ; margin-left: 4px&quot;&gt;&lt;u&gt;+ ParseUser(user : String) : User&lt;/u&gt;&lt;/p&gt;" style="verticalAlign=top;align=left;overflow=fill;fontSize=12;fontFamily=Helvetica;html=1;" parent="1" vertex="1">
          <mxGeometry x="20" y="411.75" width="200" height="110.5" as="geometry"/>
        </mxCell>
        <mxCell id="pG1MvSHpeQ2TRdzguChj-7" value="" style="endArrow=none;html=1;exitX=1;exitY=0.5;exitDx=0;exitDy=0;" parent="1" source="AcJz88Ti0jKnVirIfRQa-32" target="pG1MvSHpeQ2TRdzguChj-6" edge="1">
          <mxGeometry relative="1" as="geometry">
            <mxPoint x="-150" y="342.5" as="sourcePoint"/>
            <mxPoint x="10" y="342.5" as="targetPoint"/>
          </mxGeometry>
        </mxCell>
        <mxCell id="pG1MvSHpeQ2TRdzguChj-9" value="+ user&amp;nbsp;" style="resizable=0;html=1;align=right;verticalAlign=bottom;labelBackgroundColor=#ffffff;fontSize=10;" parent="pG1MvSHpeQ2TRdzguChj-7" connectable="0" vertex="1">
          <mxGeometry x="1" relative="1" as="geometry"/>
        </mxCell>
        <mxCell id="pG1MvSHpeQ2TRdzguChj-11" value="ServiceManager hält alle ServiceReferenzen per ServiceProvider.&lt;br&gt;Dieser reguliert ebenfalls, dass jeder Service ein Singleton ist.&amp;nbsp;&lt;br&gt;Er selbst ist ein Singleton, daher enthält dieser eine private Instanz und eine public Instanze. Das Attribut (+ Instanz) regelt den Zugriff" style="shape=note;whiteSpace=wrap;html=1;size=21;verticalAlign=top;align=left;spacingTop=-6;" parent="1" vertex="1">
          <mxGeometry x="-300" y="-80" width="240" height="116" as="geometry"/>
        </mxCell>
        <mxCell id="pG1MvSHpeQ2TRdzguChj-12" value="SettingsService speichert die Einstelungen in App.Current.Properties ab, sodass diese bei jeder Session gleich sind. Als Key für die Properties werden die Konstanten benutzt&lt;br&gt;" style="shape=note;whiteSpace=wrap;html=1;size=14;verticalAlign=top;align=left;spacingTop=-6;" parent="1" vertex="1">
          <mxGeometry x="-60" y="625" width="220" height="77" as="geometry"/>
        </mxCell>
        <mxCell id="pG1MvSHpeQ2TRdzguChj-13" value="ActivityProvider enthält eine Instanz von &lt;br&gt;jeder Aktivität und von außen können diese sich über ihn geholt werden.&lt;br&gt;Der ActivityProvider regelt, dass jede Aktivität ein Singleton ist." style="shape=note;whiteSpace=wrap;html=1;size=13;verticalAlign=top;align=left;spacingTop=-6;" parent="1" vertex="1">
          <mxGeometry x="1481" y="685" width="249" height="80" as="geometry"/>
        </mxCell>
        <mxCell id="pG1MvSHpeQ2TRdzguChj-14" value="Der Algorithmus der Aktivitätsanalyse wird in analyse() stattfinden, welche die Unterklassen implementieren müssen" style="shape=note;whiteSpace=wrap;html=1;size=14;verticalAlign=top;align=left;spacingTop=-6;" parent="1" vertex="1">
          <mxGeometry x="806.5" y="1030" width="220" height="50" as="geometry"/>
        </mxCell>
        <mxCell id="pG1MvSHpeQ2TRdzguChj-15" value="PushUpActivityThreshold" style="swimlane;fontStyle=1;align=center;verticalAlign=top;childLayout=stackLayout;horizontal=1;startSize=26;horizontalStack=0;resizeParent=1;resizeParentMax=0;resizeLast=0;collapsible=1;marginBottom=0;fillColor=#ffffff;" parent="1" vertex="1">
          <mxGeometry x="1516.5" y="1508.5" width="250" height="82" as="geometry"/>
        </mxCell>
        <mxCell id="pG1MvSHpeQ2TRdzguChj-16" value="" style="line;strokeWidth=1;fillColor=#ffffff;align=left;verticalAlign=middle;spacingTop=-1;spacingLeft=3;spacingRight=3;rotatable=0;labelPosition=right;points=[];portConstraint=eastwest;" parent="pG1MvSHpeQ2TRdzguChj-15" vertex="1">
          <mxGeometry y="26" width="250" height="4" as="geometry"/>
        </mxCell>
        <mxCell id="pG1MvSHpeQ2TRdzguChj-17" value="+ &lt;&lt;create&gt;&gt; PushUpActivityThreshold()" style="text;strokeColor=none;fillColor=#ffffff;align=left;verticalAlign=top;spacingLeft=4;spacingRight=4;overflow=hidden;rotatable=0;points=[[0,0.5],[1,0.5]];portConstraint=eastwest;" parent="pG1MvSHpeQ2TRdzguChj-15" vertex="1">
          <mxGeometry y="30" width="250" height="26" as="geometry"/>
        </mxCell>
        <mxCell id="pG1MvSHpeQ2TRdzguChj-18" value="- analyse() : void" style="text;strokeColor=none;fillColor=#ffffff;align=left;verticalAlign=top;spacingLeft=4;spacingRight=4;overflow=hidden;rotatable=0;points=[[0,0.5],[1,0.5]];portConstraint=eastwest;" parent="pG1MvSHpeQ2TRdzguChj-15" vertex="1">
          <mxGeometry y="56" width="250" height="26" as="geometry"/>
        </mxCell>
        <mxCell id="pG1MvSHpeQ2TRdzguChj-24" value="SitUpActivityThreshold" style="swimlane;fontStyle=1;align=center;verticalAlign=top;childLayout=stackLayout;horizontal=1;startSize=26;horizontalStack=0;resizeParent=1;resizeParentMax=0;resizeLast=0;collapsible=1;marginBottom=0;fillColor=#ffffff;" parent="1" vertex="1">
          <mxGeometry x="716.5" y="1508.5" width="259" height="82" as="geometry"/>
        </mxCell>
        <mxCell id="pG1MvSHpeQ2TRdzguChj-25" value="" style="line;strokeWidth=1;fillColor=#ffffff;align=left;verticalAlign=middle;spacingTop=-1;spacingLeft=3;spacingRight=3;rotatable=0;labelPosition=right;points=[];portConstraint=eastwest;" parent="pG1MvSHpeQ2TRdzguChj-24" vertex="1">
          <mxGeometry y="26" width="259" height="4" as="geometry"/>
        </mxCell>
        <mxCell id="pG1MvSHpeQ2TRdzguChj-26" value="+ &lt;&lt;create&gt;&gt; SitUpActivityThreshold()" style="text;strokeColor=none;fillColor=#ffffff;align=left;verticalAlign=top;spacingLeft=4;spacingRight=4;overflow=hidden;rotatable=0;points=[[0,0.5],[1,0.5]];portConstraint=eastwest;" parent="pG1MvSHpeQ2TRdzguChj-24" vertex="1">
          <mxGeometry y="30" width="259" height="26" as="geometry"/>
        </mxCell>
        <mxCell id="pG1MvSHpeQ2TRdzguChj-27" value="- analyse() : void" style="text;strokeColor=none;fillColor=#ffffff;align=left;verticalAlign=top;spacingLeft=4;spacingRight=4;overflow=hidden;rotatable=0;points=[[0,0.5],[1,0.5]];portConstraint=eastwest;" parent="pG1MvSHpeQ2TRdzguChj-24" vertex="1">
          <mxGeometry y="56" width="259" height="26" as="geometry"/>
        </mxCell>
        <mxCell id="pG1MvSHpeQ2TRdzguChj-28" value="Konkrete Aktivities erben von einer abstrakten Klasse, falls andere Algorithmen für die gleiche Aktivität implementiert werden, können diese ebenfalls von dieser erben" style="shape=note;whiteSpace=wrap;html=1;size=14;verticalAlign=top;align=left;spacingTop=-6;" parent="1" vertex="1">
          <mxGeometry x="1811.5" y="1410" width="240" height="82" as="geometry"/>
        </mxCell>
        <mxCell id="pG1MvSHpeQ2TRdzguChj-29" value="In der Methode ServiceRegistration() werden die Services angelegt und in einer IServiceCollection gespeichert. Aus dieser entsteht der konkrete ServiceProvider" style="shape=note;whiteSpace=wrap;html=1;size=14;verticalAlign=top;align=left;spacingTop=-6;" parent="1" vertex="1">
          <mxGeometry x="1507.5" y="400" width="249" height="68" as="geometry"/>
        </mxCell>
        <mxCell id="pG1MvSHpeQ2TRdzguChj-31" value="Uses" style="endArrow=open;endSize=12;dashed=1;html=1;exitX=0;exitY=0.5;exitDx=0;exitDy=0;" parent="1" source="sXvjfolYUnGrp_yOVfev-15" target="sXvjfolYUnGrp_yOVfev-40" edge="1">
          <mxGeometry width="160" relative="1" as="geometry">
            <mxPoint x="-860" y="702.5" as="sourcePoint"/>
            <mxPoint x="-810" y="482.5" as="targetPoint"/>
          </mxGeometry>
        </mxCell>
        <mxCell id="pG1MvSHpeQ2TRdzguChj-33" value="" style="endArrow=none;html=1;" parent="1" source="sXvjfolYUnGrp_yOVfev-16" target="sXvjfolYUnGrp_yOVfev-22" edge="1">
          <mxGeometry relative="1" as="geometry">
            <mxPoint x="-616.5" y="704.5" as="sourcePoint"/>
            <mxPoint x="-456.5" y="704.5" as="targetPoint"/>
          </mxGeometry>
        </mxCell>
        <mxCell id="pG1MvSHpeQ2TRdzguChj-35" value="- database" style="resizable=0;html=1;align=right;verticalAlign=bottom;labelBackgroundColor=#ffffff;fontSize=10;" parent="pG1MvSHpeQ2TRdzguChj-33" connectable="0" vertex="1">
          <mxGeometry x="1" relative="1" as="geometry"/>
        </mxCell>
        <mxCell id="pG1MvSHpeQ2TRdzguChj-36" value="Speichert die Trainingsdaten. Die Einträge sind jeweils die DBEntry. Dabei ist das Datum (Date) der primary key.&amp;nbsp;" style="shape=note;whiteSpace=wrap;html=1;size=14;verticalAlign=top;align=left;spacingTop=-6;" parent="1" vertex="1">
          <mxGeometry x="-1020" y="540.5" width="210" height="65.5" as="geometry"/>
        </mxCell>
        <mxCell id="pG1MvSHpeQ2TRdzguChj-37" value="Wenn an dem Tag schon ein Entry mit dem Date angelegt wurde, wird bei saveDBEntry() dieser aktuallisiert; wenn nicht, wird ein neuer Eintrag hinzugefügt." style="shape=note;whiteSpace=wrap;html=1;size=14;verticalAlign=top;align=left;spacingTop=-6;" parent="1" vertex="1">
          <mxGeometry x="-1020" y="619" width="230" height="59" as="geometry"/>
        </mxCell>
        <mxCell id="pG1MvSHpeQ2TRdzguChj-38" value="Der User überschreibt die toString() Methode, und wandelt das Objekt in einen String um. (vergleichbar mit JSON).&lt;br&gt;Damit ist der User serializable und kann von dem SettingService als Eigenschaft abgespeichert werden.&lt;br&gt;Die parseUser() Methode wird vom SettingsService beim Start verwendet, um den User aus den Eigenschaften zu parsen" style="shape=note;whiteSpace=wrap;html=1;size=14;verticalAlign=top;align=left;spacingTop=-6;" parent="1" vertex="1">
          <mxGeometry x="230" y="420.25" width="318" height="102" as="geometry"/>
        </mxCell>
        <mxCell id="AcJz88Ti0jKnVirIfRQa-2" value="" style="endArrow=none;html=1;exitX=0.5;exitY=0;exitDx=0;exitDy=0;entryX=0.5;entryY=0;entryDx=0;entryDy=0;" parent="1" source="n2-QzeIZX0uXDNsSAh_k-9" target="n2-QzeIZX0uXDNsSAh_k-11" edge="1">
          <mxGeometry width="50" height="50" relative="1" as="geometry">
            <mxPoint x="850" y="1202.5" as="sourcePoint"/>
            <mxPoint x="1700" y="1151.5" as="targetPoint"/>
            <Array as="points">
              <mxPoint x="850" y="1201.5"/>
              <mxPoint x="1642" y="1201.5"/>
            </Array>
          </mxGeometry>
        </mxCell>
        <mxCell id="AcJz88Ti0jKnVirIfRQa-3" value="" style="endArrow=none;html=1;exitX=0.5;exitY=0;exitDx=0;exitDy=0;" parent="1" source="n2-QzeIZX0uXDNsSAh_k-14" edge="1">
          <mxGeometry width="50" height="50" relative="1" as="geometry">
            <mxPoint x="1130" y="1291.5" as="sourcePoint"/>
            <mxPoint x="1119" y="1201.5" as="targetPoint"/>
          </mxGeometry>
        </mxCell>
        <mxCell id="AcJz88Ti0jKnVirIfRQa-4" value="" style="endArrow=none;html=1;exitX=0.5;exitY=0;exitDx=0;exitDy=0;" parent="1" source="n2-QzeIZX0uXDNsSAh_k-12" edge="1">
          <mxGeometry width="50" height="50" relative="1" as="geometry">
            <mxPoint x="1380.58" y="1315.5" as="sourcePoint"/>
            <mxPoint x="1381" y="1201.5" as="targetPoint"/>
          </mxGeometry>
        </mxCell>
        <mxCell id="AcJz88Ti0jKnVirIfRQa-12" value="&lt;p style=&quot;margin: 0px ; margin-top: 4px ; text-align: center&quot;&gt;&lt;i&gt;&amp;lt;&amp;lt;Enumeration&amp;gt;&amp;gt;&lt;/i&gt;&lt;br&gt;&lt;b&gt;SamplingRate&lt;/b&gt;&lt;/p&gt;&lt;hr size=&quot;1&quot;&gt;&lt;p style=&quot;margin: 0px ; margin-left: 4px&quot;&gt;1Hz,&lt;/p&gt;&lt;p style=&quot;margin: 0px ; margin-left: 4px&quot;&gt;20Hz,&lt;/p&gt;&lt;p style=&quot;margin: 0px ; margin-left: 4px&quot;&gt;50Hz,&lt;/p&gt;&lt;p style=&quot;margin: 0px ; margin-left: 4px&quot;&gt;80Hz,&lt;/p&gt;&lt;p style=&quot;margin: 0px ; margin-left: 4px&quot;&gt;100Hz&lt;/p&gt;" style="verticalAlign=top;align=left;overflow=fill;fontSize=12;fontFamily=Helvetica;html=1;" parent="1" vertex="1">
          <mxGeometry x="20" y="258" width="190" height="119" as="geometry"/>
        </mxCell>
        <mxCell id="AcJz88Ti0jKnVirIfRQa-15" value="Die Speicherung wird in den jeweiligen set Zugriffen geregelt:&lt;br&gt;ActiveLanguage { get; set{ Application.Current.Properties[LANGUAGE_PROPERTY] = value.Name;}" style="shape=note;whiteSpace=wrap;html=1;size=14;verticalAlign=top;align=left;spacingTop=-6;" parent="1" vertex="1">
          <mxGeometry x="-60" y="781.5" width="330" height="80" as="geometry"/>
        </mxCell>
        <mxCell id="AcJz88Ti0jKnVirIfRQa-17" value="Initial beim Start der App wird loadSettings() aufgerufen" style="shape=note;whiteSpace=wrap;html=1;size=14;verticalAlign=top;align=left;spacingTop=-6;" parent="1" vertex="1">
          <mxGeometry x="-60" y="728" width="220" height="35" as="geometry"/>
        </mxCell>
        <mxCell id="AcJz88Ti0jKnVirIfRQa-22" value="" style="endArrow=none;dashed=1;html=1;entryX=0.5;entryY=0;entryDx=0;entryDy=0;exitX=0.5;exitY=0;exitDx=0;exitDy=0;" parent="1" source="1QQ3cwLplbujhVV3ZzxS-51" target="1QQ3cwLplbujhVV3ZzxS-66" edge="1">
          <mxGeometry width="50" height="50" relative="1" as="geometry">
            <mxPoint x="1960" y="1160" as="sourcePoint"/>
            <mxPoint x="2451" y="1220" as="targetPoint"/>
            <Array as="points">
              <mxPoint x="1975" y="1120"/>
              <mxPoint x="2443" y="1120"/>
            </Array>
          </mxGeometry>
        </mxCell>
        <mxCell id="AcJz88Ti0jKnVirIfRQa-23" value="Die Args werden jeweils von einer Aktivität mitgeschickt&lt;br&gt;Dort können noch weitere Attribute bei Bedarf hinzugefügt werden" style="shape=note;whiteSpace=wrap;html=1;size=14;verticalAlign=top;align=left;spacingTop=-6;" parent="1" vertex="1">
          <mxGeometry x="2080.08" y="740" width="270" height="60" as="geometry"/>
        </mxCell>
        <mxCell id="AcJz88Ti0jKnVirIfRQa-25" value="" style="endArrow=block;dashed=1;endFill=0;endSize=12;html=1;exitX=0.5;exitY=0;exitDx=0;exitDy=0;entryX=0.5;entryY=1;entryDx=0;entryDy=0;" parent="1" source="1QQ3cwLplbujhVV3ZzxS-1" target="AcJz88Ti0jKnVirIfRQa-26" edge="1">
          <mxGeometry width="160" relative="1" as="geometry">
            <mxPoint x="1347.6" y="658" as="sourcePoint"/>
            <mxPoint x="1145" y="610" as="targetPoint"/>
          </mxGeometry>
        </mxCell>
        <mxCell id="AcJz88Ti0jKnVirIfRQa-26" value="&lt;p style=&quot;margin: 0px ; margin-top: 4px ; text-align: center&quot;&gt;&lt;i&gt;&amp;lt;&amp;lt;Interface&amp;gt;&amp;gt;&lt;/i&gt;&lt;br&gt;&lt;b&gt;IActivityManager&lt;/b&gt;&lt;/p&gt;&lt;hr size=&quot;1&quot;&gt;&lt;p style=&quot;margin: 0px ; margin-left: 4px&quot;&gt;+ ActivityProvider : ServiceProvider&lt;br&gt;&lt;/p&gt;&lt;hr size=&quot;1&quot;&gt;&lt;p style=&quot;margin: 0px ; margin-left: 4px&quot;&gt;+ OnIMUDataReceived(sender : object, args : DataEventArgs) : void&amp;nbsp;&lt;/p&gt;" style="verticalAlign=top;align=left;overflow=fill;fontSize=12;fontFamily=Helvetica;html=1;fillColor=#dae8fc;strokeColor=#6c8ebf;" parent="1" vertex="1">
          <mxGeometry x="1057.5" y="377" width="390" height="140" as="geometry"/>
        </mxCell>
        <mxCell id="AcJz88Ti0jKnVirIfRQa-29" value="Extends" style="endArrow=block;endSize=16;endFill=0;html=1;entryX=0.5;entryY=1;entryDx=0;entryDy=0;exitX=0.5;exitY=0;exitDx=0;exitDy=0;" parent="1" source="AcJz88Ti0jKnVirIfRQa-26" target="4jUEhYQWBBL92VZrlt_O-12" edge="1">
          <mxGeometry width="160" relative="1" as="geometry">
            <mxPoint x="1250" y="280" as="sourcePoint"/>
            <mxPoint x="1410" y="280" as="targetPoint"/>
          </mxGeometry>
        </mxCell>
        <mxCell id="AcJz88Ti0jKnVirIfRQa-32" value="&lt;p style=&quot;margin: 0px ; margin-top: 4px ; text-align: center&quot;&gt;&lt;i&gt;&amp;lt;&amp;lt;Interface&amp;gt;&amp;gt;&lt;/i&gt;&lt;br&gt;&lt;b&gt;ISettingsService&lt;/b&gt;&lt;/p&gt;&lt;hr size=&quot;1&quot;&gt;&lt;p style=&quot;margin: 0px 0px 0px 4px&quot;&gt;+ ActiveLanguage : CultureInfo&lt;br&gt;&lt;/p&gt;&lt;p style=&quot;margin: 0px 0px 0px 4px&quot;&gt;+ SamplingRate : SamplingRate&lt;/p&gt;&lt;p style=&quot;margin: 0px 0px 0px 4px&quot;&gt;- LANGUAGE_PROPERTY : String&lt;/p&gt;&lt;p style=&quot;margin: 0px 0px 0px 4px&quot;&gt;- USER_PROPERTY : String&lt;/p&gt;&lt;p style=&quot;margin: 0px 0px 0px 4px&quot;&gt;- SAMPLINGRATE_PROPERTY : String&lt;/p&gt;&lt;p style=&quot;margin: 0px 0px 0px 4px&quot;&gt;&lt;br&gt;&lt;/p&gt;&lt;hr size=&quot;1&quot;&gt;&lt;p style=&quot;margin: 0px 0px 0px 4px&quot;&gt;&lt;span&gt;- loadSettings()&amp;nbsp;: void&lt;/span&gt;&lt;br&gt;&lt;/p&gt;&lt;div&gt;&lt;br&gt;&lt;/div&gt;" style="verticalAlign=top;align=left;overflow=fill;fontSize=12;fontFamily=Helvetica;html=1;fillColor=#dae8fc;strokeColor=#6c8ebf;" parent="1" vertex="1">
          <mxGeometry x="-365" y="377" width="290" height="180" as="geometry"/>
        </mxCell>
        <mxCell id="AcJz88Ti0jKnVirIfRQa-35" value="" style="endArrow=block;dashed=1;endFill=0;endSize=12;html=1;exitX=0.5;exitY=0;exitDx=0;exitDy=0;entryX=0.5;entryY=1;entryDx=0;entryDy=0;" parent="1" source="AcJz88Ti0jKnVirIfRQa-36" target="AcJz88Ti0jKnVirIfRQa-32" edge="1">
          <mxGeometry width="160" relative="1" as="geometry">
            <mxPoint x="-218" y="681" as="sourcePoint"/>
            <mxPoint x="-220" y="578" as="targetPoint"/>
          </mxGeometry>
        </mxCell>
        <mxCell id="AcJz88Ti0jKnVirIfRQa-36" value="SettingsService" style="swimlane;fontStyle=1;align=center;verticalAlign=top;childLayout=stackLayout;horizontal=1;startSize=26;horizontalStack=0;resizeParent=1;resizeParentMax=0;resizeLast=0;collapsible=1;marginBottom=0;" parent="1" vertex="1">
          <mxGeometry x="-330" y="642" width="220" height="60" as="geometry"/>
        </mxCell>
        <mxCell id="AcJz88Ti0jKnVirIfRQa-38" value="" style="line;strokeWidth=1;fillColor=none;align=left;verticalAlign=middle;spacingTop=-1;spacingLeft=3;spacingRight=3;rotatable=0;labelPosition=right;points=[];portConstraint=eastwest;" parent="AcJz88Ti0jKnVirIfRQa-36" vertex="1">
          <mxGeometry y="26" width="220" height="8" as="geometry"/>
        </mxCell>
        <mxCell id="AcJz88Ti0jKnVirIfRQa-39" value="+ &lt;&lt;create&gt;&gt; SettingsService() " style="text;strokeColor=none;fillColor=none;align=left;verticalAlign=top;spacingLeft=4;spacingRight=4;overflow=hidden;rotatable=0;points=[[0,0.5],[1,0.5]];portConstraint=eastwest;" parent="AcJz88Ti0jKnVirIfRQa-36" vertex="1">
          <mxGeometry y="34" width="220" height="26" as="geometry"/>
        </mxCell>
        <mxCell id="AcJz88Ti0jKnVirIfRQa-50" value="Erweiterungsmodul" style="text;strokeColor=none;fillColor=none;align=left;verticalAlign=top;spacingLeft=4;spacingRight=4;overflow=hidden;rotatable=0;points=[[0,0.5],[1,0.5]];portConstraint=eastwest;opacity=60;" parent="1" vertex="1">
          <mxGeometry x="620" y="-80" width="140" height="28" as="geometry"/>
        </mxCell>
        <mxCell id="AcJz88Ti0jKnVirIfRQa-51" value="Model" style="text;strokeColor=none;fillColor=none;align=center;verticalAlign=top;spacingLeft=4;spacingRight=4;overflow=hidden;rotatable=0;points=[[0,0.5],[1,0.5]];portConstraint=eastwest;opacity=50;fontSize=60;fontStyle=1" parent="1" vertex="1">
          <mxGeometry x="-3230" y="-740" width="210" height="78" as="geometry"/>
        </mxCell>
        <mxCell id="Z_ujjo_YA2cBsGubUNvB-1" value="&lt;p style=&quot;margin: 0px ; margin-top: 4px ; text-align: center&quot;&gt;&lt;b&gt;EarablesConnection&lt;/b&gt;&lt;/p&gt;&lt;hr size=&quot;1&quot;&gt;&lt;p style=&quot;margin: 0px ; margin-left: 4px&quot;&gt;&lt;br&gt;&lt;/p&gt;&lt;hr size=&quot;1&quot;&gt;&lt;p style=&quot;margin: 0px ; margin-left: 4px&quot;&gt;&lt;br&gt;&lt;/p&gt;" style="verticalAlign=top;align=left;overflow=fill;fontSize=12;fontFamily=Helvetica;html=1;" parent="1" vertex="1">
          <mxGeometry x="-2270" y="800" width="160" height="28" as="geometry"/>
        </mxCell>
        <mxCell id="Z_ujjo_YA2cBsGubUNvB-3" value="" style="endArrow=block;dashed=1;endFill=0;endSize=12;html=1;exitX=0.5;exitY=0;exitDx=0;exitDy=0;" parent="1" source="Z_ujjo_YA2cBsGubUNvB-1" target="4jUEhYQWBBL92VZrlt_O-1" edge="1">
          <mxGeometry width="160" relative="1" as="geometry">
            <mxPoint x="-2040" y="708" as="sourcePoint"/>
            <mxPoint x="-1880" y="708" as="targetPoint"/>
          </mxGeometry>
        </mxCell>
        <mxCell id="xHMap3TiUOP78eLy4zno-1" value="CountModeViewmodel&#xa;" style="swimlane;fontStyle=1;align=center;verticalAlign=top;childLayout=stackLayout;horizontal=1;startSize=26;horizontalStack=0;resizeParent=1;resizeParentMax=0;resizeLast=0;collapsible=1;marginBottom=0;fillColor=#dae8fc;strokeColor=#6c8ebf;" parent="1" vertex="1">
          <mxGeometry x="-1617.5" y="-1851" width="350" height="282" as="geometry"/>
        </mxCell>
        <mxCell id="xHMap3TiUOP78eLy4zno-2" value="+ SelectedActivity: string&#xa;+ PossibleActivites: ObservableCollection&lt;string&gt;&#xa;+ PushUpActivity: AbstractPushUpActivity&#xa;+ SitUpActivity: AbstractSitUpActivity&#xa;- timer: Stopwatch&#xa;+ Minutes: string&#xa;+ Seconds: string&#xa;+ Milliseconds: string&#xa;+ Counter: int" style="text;strokeColor=#6c8ebf;fillColor=#dae8fc;align=left;verticalAlign=top;spacingLeft=4;spacingRight=4;overflow=hidden;rotatable=0;points=[[0,0.5],[1,0.5]];portConstraint=eastwest;" parent="xHMap3TiUOP78eLy4zno-1" vertex="1">
          <mxGeometry y="26" width="350" height="134" as="geometry"/>
        </mxCell>
        <mxCell id="xHMap3TiUOP78eLy4zno-3" value="" style="line;strokeWidth=1;fillColor=#dae8fc;align=left;verticalAlign=middle;spacingTop=-1;spacingLeft=3;spacingRight=3;rotatable=0;labelPosition=right;points=[];portConstraint=eastwest;strokeColor=#6c8ebf;" parent="xHMap3TiUOP78eLy4zno-1" vertex="1">
          <mxGeometry y="160" width="350" as="geometry"/>
        </mxCell>
        <mxCell id="xHMap3TiUOP78eLy4zno-4" value="+ &lt;&lt;create&gt;&gt; CountModeViewmodel&#xa;+ StartActivity(): void&#xa;+ StopActivity(): void&#xa;+ StartTimer(): void&#xa;+ StopTimer(): void&#xa;+ OnActivityDone(sender: object, e: ActivityArgs )&#xa;+ ShowPopUp(): void&#xa;" style="text;align=left;verticalAlign=top;spacingLeft=4;spacingRight=4;overflow=hidden;rotatable=0;points=[[0,0.5],[1,0.5]];portConstraint=eastwest;fillColor=#dae8fc;strokeColor=#6c8ebf;" parent="xHMap3TiUOP78eLy4zno-1" vertex="1">
          <mxGeometry y="160" width="350" height="122" as="geometry"/>
        </mxCell>
        <mxCell id="xHMap3TiUOP78eLy4zno-5" value="«interface»&lt;br&gt;&lt;b&gt;INotifyPropertyChanged&lt;/b&gt;" style="html=1;" parent="1" vertex="1">
          <mxGeometry x="-2464" y="-2070" width="155" height="52" as="geometry"/>
        </mxCell>
        <mxCell id="xHMap3TiUOP78eLy4zno-6" value="Start Activity:&lt;br&gt;this.OnActivityDone += Activity.OnActivityDone&lt;br&gt;&lt;br&gt;await Navigation.pushAsync(new CountModeActiveView())&lt;br&gt;&lt;br&gt;startTimer()" style="shape=note;whiteSpace=wrap;html=1;size=14;verticalAlign=top;align=left;spacingTop=-6;" parent="1" vertex="1">
          <mxGeometry x="-1807" y="-1709" width="180" height="140" as="geometry"/>
        </mxCell>
        <mxCell id="xHMap3TiUOP78eLy4zno-7" value="OnActivityDone:&lt;br&gt;counter++" style="shape=note;whiteSpace=wrap;html=1;size=14;verticalAlign=top;align=left;spacingTop=-6;" parent="1" vertex="1">
          <mxGeometry x="-2497.5" y="-1637" width="110" height="36" as="geometry"/>
        </mxCell>
        <mxCell id="xHMap3TiUOP78eLy4zno-23" value="MusicModeViewmodel" style="swimlane;fontStyle=1;align=center;verticalAlign=top;childLayout=stackLayout;horizontal=1;startSize=40;horizontalStack=0;resizeParent=1;resizeParentMax=0;resizeLast=0;collapsible=1;marginBottom=0;fillColor=#dae8fc;strokeColor=#6c8ebf;" parent="1" vertex="1">
          <mxGeometry x="50" y="-1851" width="360" height="180" as="geometry"/>
        </mxCell>
        <mxCell id="xHMap3TiUOP78eLy4zno-24" value="- isRunning: boolean&#xa;+ RunningActivity: AbstractRunningActivity&#xa;" style="text;strokeColor=#6c8ebf;fillColor=#dae8fc;align=left;verticalAlign=top;spacingLeft=4;spacingRight=4;overflow=hidden;rotatable=0;points=[[0,0.5],[1,0.5]];portConstraint=eastwest;" parent="xHMap3TiUOP78eLy4zno-23" vertex="1">
          <mxGeometry y="40" width="360" height="40" as="geometry"/>
        </mxCell>
        <mxCell id="xHMap3TiUOP78eLy4zno-25" value="" style="line;strokeWidth=1;fillColor=#dae8fc;align=left;verticalAlign=middle;spacingTop=-1;spacingLeft=3;spacingRight=3;rotatable=0;labelPosition=right;points=[];portConstraint=eastwest;strokeColor=#6c8ebf;" parent="xHMap3TiUOP78eLy4zno-23" vertex="1">
          <mxGeometry y="80" width="360" as="geometry"/>
        </mxCell>
        <mxCell id="xHMap3TiUOP78eLy4zno-26" value="+ &lt;&lt;create&gt;&gt; MusicModeViewmodel&#xa;+ StartActivity(): void&#xa;+ StopActivity(): void&#xa;+ OnActivityDone(sender: object, e: RunningEventArgs)&#xa;+ StopMusic(): void&#xa;+ RestartMusic(): void" style="text;strokeColor=#6c8ebf;fillColor=#dae8fc;align=left;verticalAlign=top;spacingLeft=4;spacingRight=4;overflow=hidden;rotatable=0;points=[[0,0.5],[1,0.5]];portConstraint=eastwest;" parent="xHMap3TiUOP78eLy4zno-23" vertex="1">
          <mxGeometry y="80" width="360" height="100" as="geometry"/>
        </mxCell>
        <mxCell id="xHMap3TiUOP78eLy4zno-27" value="StepModeViewmodel" style="swimlane;fontStyle=1;align=center;verticalAlign=top;childLayout=stackLayout;horizontal=1;startSize=26;horizontalStack=0;resizeParent=1;resizeParentMax=0;resizeLast=0;collapsible=1;marginBottom=0;fillColor=#dae8fc;strokeColor=#6c8ebf;" parent="1" vertex="1">
          <mxGeometry x="-500" y="-1851" width="310" height="242" as="geometry"/>
        </mxCell>
        <mxCell id="xHMap3TiUOP78eLy4zno-28" value="+ StepsDoneLastTime: string&#xa;+ DistanceWalkedLastTime: string&#xa;+ LastDataTime: string&#xa;+ StepCounter: int&#xa;+ DistanceWalked: int&#xa;+ IsRunning: boolean&#xa;+ StepActivity: AbstractStepActivity&#xa;+ RunningActivity: AbstractRunningActivity&#xa;" style="text;strokeColor=#6c8ebf;fillColor=#dae8fc;align=left;verticalAlign=top;spacingLeft=4;spacingRight=4;overflow=hidden;rotatable=0;points=[[0,0.5],[1,0.5]];portConstraint=eastwest;" parent="xHMap3TiUOP78eLy4zno-27" vertex="1">
          <mxGeometry y="26" width="310" height="124" as="geometry"/>
        </mxCell>
        <mxCell id="xHMap3TiUOP78eLy4zno-29" value="" style="line;strokeWidth=1;fillColor=none;align=left;verticalAlign=middle;spacingTop=-1;spacingLeft=3;spacingRight=3;rotatable=0;labelPosition=right;points=[];portConstraint=eastwest;" parent="xHMap3TiUOP78eLy4zno-27" vertex="1">
          <mxGeometry y="150" width="310" as="geometry"/>
        </mxCell>
        <mxCell id="xHMap3TiUOP78eLy4zno-30" value="+ &lt;&lt;create&gt;&gt; StepModeViewmodel&#xa;+ StartActivity(): void&#xa;+ StopActivity(): void&#xa;+ OnActivityDone(sender: object, e: ActivityArgs)&#xa;+ UpdateLastData(): void&#xa;+ showPopUp(): void&#xa;" style="text;strokeColor=#6c8ebf;fillColor=#dae8fc;align=left;verticalAlign=top;spacingLeft=4;spacingRight=4;overflow=hidden;rotatable=0;points=[[0,0.5],[1,0.5]];portConstraint=eastwest;" parent="xHMap3TiUOP78eLy4zno-27" vertex="1">
          <mxGeometry y="150" width="310" height="92" as="geometry"/>
        </mxCell>
        <mxCell id="xHMap3TiUOP78eLy4zno-31" value="ListenAndPerformViewmodel" style="swimlane;fontStyle=1;align=center;verticalAlign=top;childLayout=stackLayout;horizontal=1;startSize=26;horizontalStack=0;resizeParent=1;resizeParentMax=0;resizeLast=0;collapsible=1;marginBottom=0;fillColor=#dae8fc;strokeColor=#6c8ebf;" parent="1" vertex="1">
          <mxGeometry x="-2282.5" y="-1859" width="360" height="472" as="geometry"/>
        </mxCell>
        <mxCell id="xHMap3TiUOP78eLy4zno-32" value="+ PushUpCounter: int&#xa;+ SitUpCounter: int&#xa;- pushUpResult: int&#xa;- sitUpResult: int&#xa;- timer: Stopwatch&#xa;+ Minutes: String&#xa;+ Seconds: String&#xa;+ Milliseconds: String&#xa;+ PushUpActivity: AbstractPushUpActivity&#xa;+ SitUpActivity: AbstractSitUpActivity&#xa;+ ActivityList: ObservableCollection&lt;string&gt;&#xa;+ ActivityAmounts: ObservableCollection&lt;int&gt;&#xa;+ SelectedActivity: string&#xa;+ AddActivityCommand: Command&#xa;+ RemoveActivityCommand: Command&#xa;+ EditActivityCommand: Command&#xa;" style="text;strokeColor=#6c8ebf;fillColor=#dae8fc;align=left;verticalAlign=top;spacingLeft=4;spacingRight=4;overflow=hidden;rotatable=0;points=[[0,0.5],[1,0.5]];portConstraint=eastwest;" parent="xHMap3TiUOP78eLy4zno-31" vertex="1">
          <mxGeometry y="26" width="360" height="254" as="geometry"/>
        </mxCell>
        <mxCell id="xHMap3TiUOP78eLy4zno-33" value="" style="line;strokeWidth=1;fillColor=#dae8fc;align=left;verticalAlign=middle;spacingTop=-1;spacingLeft=3;spacingRight=3;rotatable=0;labelPosition=right;points=[];portConstraint=eastwest;strokeColor=#6c8ebf;" parent="xHMap3TiUOP78eLy4zno-31" vertex="1">
          <mxGeometry y="280" width="360" as="geometry"/>
        </mxCell>
        <mxCell id="xHMap3TiUOP78eLy4zno-34" value="+ &lt;&lt;create&gt;&gt; ListAndPerformViewmodel&#xa;# OnPropertyChanged(): void&#xa;+ StartActivity(): void&#xa;+ StopActivity(): void&#xa;+ StartTimer(): void&#xa;+ StopTimer(): void&#xa;+ DoActivity(): void&#xa;+ AddActivity(): void&#xa;+ RemoveActivity(): void&#xa;+ EditActivity(): void&#xa;+ OnActivityDone(sender: object, e: ActivityArgs)&#xa;+ ShowPopUp(): void&#xa;+ SpeakNextActivity(): void" style="text;strokeColor=#6c8ebf;fillColor=#dae8fc;align=left;verticalAlign=top;spacingLeft=4;spacingRight=4;overflow=hidden;rotatable=0;points=[[0,0.5],[1,0.5]];portConstraint=eastwest;" parent="xHMap3TiUOP78eLy4zno-31" vertex="1">
          <mxGeometry y="280" width="360" height="192" as="geometry"/>
        </mxCell>
        <mxCell id="xHMap3TiUOP78eLy4zno-35" value="StopActivity:&lt;br&gt;stopTimer()&lt;br&gt;this.OnActivityDone -= Activity.OnActivityDone&lt;br&gt;showPopUp()&lt;br&gt;await Navigation.pushAsync(new CountModeView)" style="shape=note;whiteSpace=wrap;html=1;size=14;verticalAlign=top;align=left;spacingTop=-6;" parent="1" vertex="1">
          <mxGeometry x="-1255" y="-1679.88" width="210" height="110.88" as="geometry"/>
        </mxCell>
        <mxCell id="xHMap3TiUOP78eLy4zno-36" value="" style="endArrow=block;dashed=1;endFill=0;endSize=12;html=1;entryX=0.372;entryY=1.019;entryDx=0;entryDy=0;entryPerimeter=0;" parent="1" source="xHMap3TiUOP78eLy4zno-31" target="xHMap3TiUOP78eLy4zno-5" edge="1">
          <mxGeometry width="160" relative="1" as="geometry">
            <mxPoint x="-2177.5" y="-1140" as="sourcePoint"/>
            <mxPoint x="-2017.5" y="-1140" as="targetPoint"/>
          </mxGeometry>
        </mxCell>
        <mxCell id="xHMap3TiUOP78eLy4zno-37" value="Konstruktor:&lt;br&gt;StartActivityCommand = new Command (StartActivity);&lt;br&gt;StopActivityCommand = new Command (StopActivity);" style="shape=note;whiteSpace=wrap;html=1;size=14;verticalAlign=top;align=left;spacingTop=-6;" parent="1" vertex="1">
          <mxGeometry x="-2720" y="-1288.65" width="335" height="67" as="geometry"/>
        </mxCell>
        <mxCell id="xHMap3TiUOP78eLy4zno-38" value="UpdateLastData:&lt;br&gt;Wird im Konstruktor und nach jedem Stoppen aufgerufen. Fordert vom Service Manager den letzten DBEntry an und aktualisiert seine Attribute." style="shape=note;whiteSpace=wrap;html=1;size=14;verticalAlign=top;align=left;spacingTop=-6;" parent="1" vertex="1">
          <mxGeometry x="-185" y="-1704.0000000000002" width="174.88" height="95" as="geometry"/>
        </mxCell>
        <mxCell id="xHMap3TiUOP78eLy4zno-39" value="showPopUp():&lt;br&gt;await DisplayAlert(&quot;Result&quot;, &quot;You have done &quot; + counter + &quot; &quot; + selectedActivity, &quot;OK&quot;)" style="shape=note;whiteSpace=wrap;html=1;size=14;verticalAlign=top;align=left;spacingTop=-6;" parent="1" vertex="1">
          <mxGeometry x="-2600" y="-1189.9999999999998" width="230" height="58.12" as="geometry"/>
        </mxCell>
        <mxCell id="xHMap3TiUOP78eLy4zno-40" value="await TextToSpeech.SpeakAsync()" style="text;html=1;align=center;verticalAlign=middle;resizable=0;points=[];;autosize=1;" parent="1" vertex="1">
          <mxGeometry x="-2697.5" y="-1355.24" width="200" height="20" as="geometry"/>
        </mxCell>
        <mxCell id="xHMap3TiUOP78eLy4zno-41" value="Hinzufügen von Aktivitäten:&lt;br&gt;Klick auf Add Button -&amp;gt; Aufruf von AddActivity();&lt;br&gt;Popup, Auswahl von Aktivität &lt;br&gt;&lt;div&gt;string newActivity = await DisplayActionSheet (&quot;SelectActivity:&quot;, &quot;Cancel&quot;, null, &quot;PushUp&quot;, &quot;SitUp&quot;, &quot;Rest&quot;);&lt;/div&gt;Popup, Eingabe von Anzahl&lt;br&gt;string newAmount = await DisplayPromptAsync(&quot;Enter amount:&quot;);&lt;br&gt;Bestätigung mit OK Button&lt;br&gt;&lt;br&gt;Aktivität und Anzahl werden in Collections aufgenommen." style="shape=note;whiteSpace=wrap;html=1;size=14;verticalAlign=top;align=left;spacingTop=-6;" parent="1" vertex="1">
          <mxGeometry x="-2300" y="-1300" width="297.5" height="210" as="geometry"/>
        </mxCell>
        <mxCell id="xHMap3TiUOP78eLy4zno-42" value="StartActivity:&lt;br&gt;View wechseln&lt;br&gt;In Collection erste Activity und Anzahl abfragen.&amp;nbsp;&lt;br&gt;Bei der entsprechenden Activity registrieren.&lt;br&gt;Activity vorlesen&lt;br&gt;Timer starten&lt;br&gt;Activity bis zur anzahl erkennen&lt;br&gt;Unregistrieren&lt;br&gt;Weiter mit nächster aktivität bis Liste abgearbeitet ist" style="shape=note;whiteSpace=wrap;html=1;size=14;verticalAlign=top;align=left;spacingTop=-6;" parent="1" vertex="1">
          <mxGeometry x="-2545" y="-1550" width="195" height="170" as="geometry"/>
        </mxCell>
        <mxCell id="xHMap3TiUOP78eLy4zno-43" value="CountModePage" style="swimlane;fontStyle=1;childLayout=stackLayout;horizontal=1;startSize=26;fillColor=#f5f5f5;horizontalStack=0;resizeParent=1;resizeParentMax=0;resizeLast=0;collapsible=1;marginBottom=0;strokeColor=#666666;fontColor=#333333;" parent="1" vertex="1">
          <mxGeometry x="-1627" y="-2961.67" width="160" height="100" as="geometry"/>
        </mxCell>
        <mxCell id="xHMap3TiUOP78eLy4zno-44" value="+ CountMode: Label&#xa;+ Activities: ListView&#xa;+ Start: Button " style="text;strokeColor=#666666;fillColor=#f5f5f5;align=left;verticalAlign=top;spacingLeft=4;spacingRight=4;overflow=hidden;rotatable=0;points=[[0,0.5],[1,0.5]];portConstraint=eastwest;fontColor=#333333;" parent="xHMap3TiUOP78eLy4zno-43" vertex="1">
          <mxGeometry y="26" width="160" height="74" as="geometry"/>
        </mxCell>
        <mxCell id="xHMap3TiUOP78eLy4zno-45" value="CountModeActivePage" style="swimlane;fontStyle=1;childLayout=stackLayout;horizontal=1;startSize=26;fillColor=#f5f5f5;horizontalStack=0;resizeParent=1;resizeParentMax=0;resizeLast=0;collapsible=1;marginBottom=0;strokeColor=#666666;fontColor=#333333;" parent="1" vertex="1">
          <mxGeometry x="-1427" y="-2966.67" width="170" height="110" as="geometry"/>
        </mxCell>
        <mxCell id="xHMap3TiUOP78eLy4zno-46" value="+ CountMode: Label&#xa;+ Timer: Label&#xa;+ Counter: Label&#xa;+ SelectedActivity: Label&#xa;+ Stop: Button " style="text;strokeColor=#666666;fillColor=#f5f5f5;align=left;verticalAlign=top;spacingLeft=4;spacingRight=4;overflow=hidden;rotatable=0;points=[[0,0.5],[1,0.5]];portConstraint=eastwest;fontColor=#333333;" parent="xHMap3TiUOP78eLy4zno-45" vertex="1">
          <mxGeometry y="26" width="170" height="84" as="geometry"/>
        </mxCell>
        <mxCell id="xHMap3TiUOP78eLy4zno-47" value="" style="endArrow=none;html=1;exitX=0.5;exitY=0;exitDx=0;exitDy=0;" parent="1" source="xHMap3TiUOP78eLy4zno-1" target="xHMap3TiUOP78eLy4zno-44" edge="1">
          <mxGeometry width="50" height="50" relative="1" as="geometry">
            <mxPoint x="-1462.5" y="-1810" as="sourcePoint"/>
            <mxPoint x="-1412.5" y="-1860" as="targetPoint"/>
          </mxGeometry>
        </mxCell>
        <mxCell id="xHMap3TiUOP78eLy4zno-48" value="BindingContext" style="text;html=1;align=center;verticalAlign=middle;resizable=0;points=[];;autosize=1;" parent="1" vertex="1">
          <mxGeometry x="-1446" y="-1740" width="100" height="20" as="geometry"/>
        </mxCell>
        <mxCell id="xHMap3TiUOP78eLy4zno-49" value="" style="endArrow=none;html=1;exitX=0.5;exitY=0;exitDx=0;exitDy=0;" parent="1" source="xHMap3TiUOP78eLy4zno-1" target="xHMap3TiUOP78eLy4zno-45" edge="1">
          <mxGeometry width="50" height="50" relative="1" as="geometry">
            <mxPoint x="-1242.5" y="-1710" as="sourcePoint"/>
            <mxPoint x="-1242.9699999999998" y="-1814.998" as="targetPoint"/>
          </mxGeometry>
        </mxCell>
        <mxCell id="xHMap3TiUOP78eLy4zno-50" value="BindingContext" style="text;html=1;align=center;verticalAlign=middle;resizable=0;points=[];;autosize=1;" parent="1" vertex="1">
          <mxGeometry x="-1497" y="-1940" width="100" height="20" as="geometry"/>
        </mxCell>
        <mxCell id="xHMap3TiUOP78eLy4zno-51" value="{abstract}&#xa;BaseViewmodel" style="swimlane;fontStyle=3;align=center;verticalAlign=top;childLayout=stackLayout;horizontal=1;startSize=39;horizontalStack=0;resizeParent=1;resizeParentMax=0;resizeLast=0;collapsible=1;marginBottom=0;fillColor=#dae8fc;strokeColor=#6c8ebf;" parent="1" vertex="1">
          <mxGeometry x="-1030" y="-2178.33" width="339.5" height="167" as="geometry">
            <mxRectangle x="1070" y="820" width="180" height="39" as="alternateBounds"/>
          </mxGeometry>
        </mxCell>
        <mxCell id="xHMap3TiUOP78eLy4zno-52" value="+ StartActivityCommand: ICommand&#xa;+ StopActivityCommand: ICommand&#xa;" style="text;strokeColor=#6c8ebf;fillColor=#dae8fc;align=left;verticalAlign=top;spacingLeft=4;spacingRight=4;overflow=hidden;rotatable=0;points=[[0,0.5],[1,0.5]];portConstraint=eastwest;" parent="xHMap3TiUOP78eLy4zno-51" vertex="1">
          <mxGeometry y="39" width="339.5" height="41" as="geometry"/>
        </mxCell>
        <mxCell id="xHMap3TiUOP78eLy4zno-53" value="" style="line;strokeWidth=1;fillColor=none;align=left;verticalAlign=middle;spacingTop=-1;spacingLeft=3;spacingRight=3;rotatable=0;labelPosition=right;points=[];portConstraint=eastwest;" parent="xHMap3TiUOP78eLy4zno-51" vertex="1">
          <mxGeometry y="80" width="339.5" as="geometry"/>
        </mxCell>
        <mxCell id="xHMap3TiUOP78eLy4zno-54" value="+ {abstract} StartActivity(): void&#xa;+ {abstract} StopActivity(): void&#xa;+ {abstract} OnActivityDone(sender: object, e: ActivityArgs)&#xa; " style="text;strokeColor=#6c8ebf;fillColor=#dae8fc;align=left;verticalAlign=top;spacingLeft=4;spacingRight=4;overflow=hidden;rotatable=0;points=[[0,0.5],[1,0.5]];portConstraint=eastwest;" parent="xHMap3TiUOP78eLy4zno-51" vertex="1">
          <mxGeometry y="80" width="339.5" height="87" as="geometry"/>
        </mxCell>
        <mxCell id="xHMap3TiUOP78eLy4zno-55" value="Extends" style="endArrow=block;endSize=16;endFill=0;html=1;" parent="1" target="xHMap3TiUOP78eLy4zno-51" edge="1">
          <mxGeometry width="160" relative="1" as="geometry">
            <mxPoint x="-860" y="-1890" as="sourcePoint"/>
            <mxPoint x="-682.5" y="-1310" as="targetPoint"/>
          </mxGeometry>
        </mxCell>
        <mxCell id="xHMap3TiUOP78eLy4zno-60" value="StepModePage" style="swimlane;fontStyle=1;childLayout=stackLayout;horizontal=1;startSize=26;fillColor=#f5f5f5;horizontalStack=0;resizeParent=1;resizeParentMax=0;resizeLast=0;collapsible=1;marginBottom=0;strokeColor=#666666;fontColor=#333333;" parent="1" vertex="1">
          <mxGeometry x="-550" y="-3141.5" width="205" height="110" as="geometry"/>
        </mxCell>
        <mxCell id="xHMap3TiUOP78eLy4zno-61" value="+ StepMode: Label&#xa;+ LastTrainingsDate: Label&#xa;+ StepsDoneLastTime: Label&#xa;+ DistanceWalkedLastTime: Label&#xa;+ Start: Button &#xa;" style="text;strokeColor=#666666;fillColor=#f5f5f5;align=left;verticalAlign=top;spacingLeft=4;spacingRight=4;overflow=hidden;rotatable=0;points=[[0,0.5],[1,0.5]];portConstraint=eastwest;fontColor=#333333;" parent="xHMap3TiUOP78eLy4zno-60" vertex="1">
          <mxGeometry y="26" width="205" height="84" as="geometry"/>
        </mxCell>
        <mxCell id="xHMap3TiUOP78eLy4zno-62" value="StepModeActivePage" style="swimlane;fontStyle=1;childLayout=stackLayout;horizontal=1;startSize=26;fillColor=#f5f5f5;horizontalStack=0;resizeParent=1;resizeParentMax=0;resizeLast=0;collapsible=1;marginBottom=0;strokeColor=#666666;fontColor=#333333;" parent="1" vertex="1">
          <mxGeometry x="-250" y="-3141.5" width="190" height="120" as="geometry"/>
        </mxCell>
        <mxCell id="xHMap3TiUOP78eLy4zno-63" value="+ StepMode: Label&#xa;+ isRunning: Label&#xa;+ StepCounter: Label&#xa;+ DistanceWalked: Label&#xa;+ Stop: Button" style="text;strokeColor=#666666;fillColor=#f5f5f5;align=left;verticalAlign=top;spacingLeft=4;spacingRight=4;overflow=hidden;rotatable=0;points=[[0,0.5],[1,0.5]];portConstraint=eastwest;fontColor=#333333;" parent="xHMap3TiUOP78eLy4zno-62" vertex="1">
          <mxGeometry y="26" width="190" height="94" as="geometry"/>
        </mxCell>
        <mxCell id="xHMap3TiUOP78eLy4zno-64" value="MusicModeAllPage" style="swimlane;fontStyle=1;childLayout=stackLayout;horizontal=1;startSize=26;fillColor=#f5f5f5;horizontalStack=0;resizeParent=1;resizeParentMax=0;resizeLast=0;collapsible=1;marginBottom=0;strokeColor=#666666;fontColor=#333333;" parent="1" vertex="1">
          <mxGeometry x="140" y="-3100" width="170" height="70" as="geometry"/>
        </mxCell>
        <mxCell id="xHMap3TiUOP78eLy4zno-65" value="+ MusicMode: Label&#xa;+ TwoWayButton: Button" style="text;strokeColor=#666666;fillColor=#f5f5f5;align=left;verticalAlign=top;spacingLeft=4;spacingRight=4;overflow=hidden;rotatable=0;points=[[0,0.5],[1,0.5]];portConstraint=eastwest;fontColor=#333333;" parent="xHMap3TiUOP78eLy4zno-64" vertex="1">
          <mxGeometry y="26" width="170" height="44" as="geometry"/>
        </mxCell>
        <mxCell id="xHMap3TiUOP78eLy4zno-66" value="ListenAndPerformPage" style="swimlane;fontStyle=1;childLayout=stackLayout;horizontal=1;startSize=26;fillColor=#f5f5f5;horizontalStack=0;resizeParent=1;resizeParentMax=0;resizeLast=0;collapsible=1;marginBottom=0;strokeColor=#666666;fontColor=#333333;" parent="1" vertex="1">
          <mxGeometry x="-2313.5" y="-2966.67" width="180" height="140" as="geometry"/>
        </mxCell>
        <mxCell id="xHMap3TiUOP78eLy4zno-67" value="+ ListenAndPerform: Label&#xa;+ WorkoutPlan: Label&#xa;+ Activies: ListView&#xa;+ AddActivity: Button&#xa;+ RemoveActivity: Button&#xa;+ EditActivity: Button&#xa;+ Start: Button" style="text;strokeColor=#666666;fillColor=#f5f5f5;align=left;verticalAlign=top;spacingLeft=4;spacingRight=4;overflow=hidden;rotatable=0;points=[[0,0.5],[1,0.5]];portConstraint=eastwest;fontColor=#333333;" parent="xHMap3TiUOP78eLy4zno-66" vertex="1">
          <mxGeometry y="26" width="180" height="114" as="geometry"/>
        </mxCell>
        <mxCell id="xHMap3TiUOP78eLy4zno-68" value="ListenAndPerformActivePage" style="swimlane;fontStyle=1;childLayout=stackLayout;horizontal=1;startSize=26;fillColor=#f5f5f5;horizontalStack=0;resizeParent=1;resizeParentMax=0;resizeLast=0;collapsible=1;marginBottom=0;strokeColor=#666666;fontColor=#333333;" parent="1" vertex="1">
          <mxGeometry x="-2073.5" y="-2956.67" width="190" height="120" as="geometry"/>
        </mxCell>
        <mxCell id="xHMap3TiUOP78eLy4zno-69" value="+ ListenAndPerform: Label&#xa;+ Activity: Label&#xa;+ Timer: Label&#xa;+ Counter: Label&#xa;+ Progress: Progress&#xa;+ Stop: Button" style="text;strokeColor=#666666;fillColor=#f5f5f5;align=left;verticalAlign=top;spacingLeft=4;spacingRight=4;overflow=hidden;rotatable=0;points=[[0,0.5],[1,0.5]];portConstraint=eastwest;fontColor=#333333;" parent="xHMap3TiUOP78eLy4zno-68" vertex="1">
          <mxGeometry y="26" width="190" height="94" as="geometry"/>
        </mxCell>
        <mxCell id="xHMap3TiUOP78eLy4zno-70" value="" style="endArrow=none;html=1;exitX=0.5;exitY=0;exitDx=0;exitDy=0;entryX=0.5;entryY=1;entryDx=0;entryDy=0;" parent="1" source="xHMap3TiUOP78eLy4zno-27" target="xHMap3TiUOP78eLy4zno-62" edge="1">
          <mxGeometry width="50" height="50" relative="1" as="geometry">
            <mxPoint x="-317.5" y="-2340.5" as="sourcePoint"/>
            <mxPoint x="-399.7342995169083" y="-2460" as="targetPoint"/>
          </mxGeometry>
        </mxCell>
        <mxCell id="xHMap3TiUOP78eLy4zno-71" value="" style="endArrow=none;html=1;exitX=0.5;exitY=0;exitDx=0;exitDy=0;entryX=0.5;entryY=1;entryDx=0;entryDy=0;" parent="1" source="xHMap3TiUOP78eLy4zno-27" target="xHMap3TiUOP78eLy4zno-60" edge="1">
          <mxGeometry width="50" height="50" relative="1" as="geometry">
            <mxPoint x="-472.5" y="-2340.5" as="sourcePoint"/>
            <mxPoint x="-579.7342995169083" y="-2480" as="targetPoint"/>
          </mxGeometry>
        </mxCell>
        <mxCell id="xHMap3TiUOP78eLy4zno-73" value="BindingContext" style="text;html=1;align=center;verticalAlign=middle;resizable=0;points=[];;autosize=1;" parent="1" vertex="1">
          <mxGeometry x="-383.0000000000001" y="-1950" width="100" height="20" as="geometry"/>
        </mxCell>
        <mxCell id="xHMap3TiUOP78eLy4zno-74" value="" style="endArrow=none;html=1;entryX=0.5;entryY=1;entryDx=0;entryDy=0;exitX=0.5;exitY=0;exitDx=0;exitDy=0;" parent="1" source="xHMap3TiUOP78eLy4zno-23" target="xHMap3TiUOP78eLy4zno-64" edge="1">
          <mxGeometry width="50" height="50" relative="1" as="geometry">
            <mxPoint x="-437.5" y="-1650" as="sourcePoint"/>
            <mxPoint x="-387.5" y="-1700" as="targetPoint"/>
          </mxGeometry>
        </mxCell>
        <mxCell id="xHMap3TiUOP78eLy4zno-76" value="" style="endArrow=none;html=1;exitX=0.5;exitY=0;exitDx=0;exitDy=0;entryX=0.45;entryY=1.027;entryDx=0;entryDy=0;entryPerimeter=0;" parent="1" source="xHMap3TiUOP78eLy4zno-31" target="xHMap3TiUOP78eLy4zno-67" edge="1">
          <mxGeometry width="50" height="50" relative="1" as="geometry">
            <mxPoint x="-2032.5" y="-1645.53" as="sourcePoint"/>
            <mxPoint x="-2132.5" y="-1800" as="targetPoint"/>
          </mxGeometry>
        </mxCell>
        <mxCell id="xHMap3TiUOP78eLy4zno-77" value="" style="endArrow=none;html=1;exitX=0.5;exitY=0;exitDx=0;exitDy=0;entryX=0.5;entryY=1;entryDx=0;entryDy=0;" parent="1" source="xHMap3TiUOP78eLy4zno-31" target="xHMap3TiUOP78eLy4zno-68" edge="1">
          <mxGeometry width="50" height="50" relative="1" as="geometry">
            <mxPoint x="-2032.5" y="-1575.53" as="sourcePoint"/>
            <mxPoint x="-1889.8833333333334" y="-1812" as="targetPoint"/>
          </mxGeometry>
        </mxCell>
        <mxCell id="xHMap3TiUOP78eLy4zno-78" value="BindingContext" style="text;html=1;align=center;verticalAlign=middle;resizable=0;points=[];;autosize=1;" parent="1" vertex="1">
          <mxGeometry x="-2160" y="-1908" width="100" height="20" as="geometry"/>
        </mxCell>
        <mxCell id="xHMap3TiUOP78eLy4zno-83" value="" style="endArrow=none;html=1;entryX=0.25;entryY=0;entryDx=0;entryDy=0;exitX=0.75;exitY=0;exitDx=0;exitDy=0;" parent="1" source="xHMap3TiUOP78eLy4zno-31" target="xHMap3TiUOP78eLy4zno-23" edge="1">
          <mxGeometry width="50" height="50" relative="1" as="geometry">
            <mxPoint x="-2010" y="-1890" as="sourcePoint"/>
            <mxPoint x="150" y="-1890" as="targetPoint"/>
            <Array as="points">
              <mxPoint x="-2012" y="-1890"/>
              <mxPoint x="140" y="-1890"/>
            </Array>
          </mxGeometry>
        </mxCell>
        <mxCell id="xHMap3TiUOP78eLy4zno-84" value="" style="endArrow=none;html=1;exitX=0.75;exitY=0;exitDx=0;exitDy=0;" parent="1" source="xHMap3TiUOP78eLy4zno-1" edge="1">
          <mxGeometry width="50" height="50" relative="1" as="geometry">
            <mxPoint x="-1340" y="-1880" as="sourcePoint"/>
            <mxPoint x="-1355" y="-1890" as="targetPoint"/>
          </mxGeometry>
        </mxCell>
        <mxCell id="xHMap3TiUOP78eLy4zno-85" value="" style="endArrow=none;html=1;exitX=0.25;exitY=0;exitDx=0;exitDy=0;" parent="1" source="xHMap3TiUOP78eLy4zno-27" edge="1">
          <mxGeometry width="50" height="50" relative="1" as="geometry">
            <mxPoint x="-457.64" y="-1859" as="sourcePoint"/>
            <mxPoint x="-422" y="-1890" as="targetPoint"/>
          </mxGeometry>
        </mxCell>
        <mxCell id="xHMap3TiUOP78eLy4zno-88" value="Use" style="endArrow=open;endSize=12;dashed=1;html=1;entryX=0.5;entryY=0;entryDx=0;entryDy=0;exitX=0.5;exitY=1;exitDx=0;exitDy=0;" parent="1" source="xHMap3TiUOP78eLy4zno-23" target="sXvjfolYUnGrp_yOVfev-64" edge="1">
          <mxGeometry width="160" relative="1" as="geometry">
            <mxPoint x="10" y="-1310" as="sourcePoint"/>
            <mxPoint x="-260" y="-930" as="targetPoint"/>
          </mxGeometry>
        </mxCell>
        <mxCell id="xHMap3TiUOP78eLy4zno-89" value="Use" style="endArrow=open;endSize=12;dashed=1;html=1;exitX=0.5;exitY=1;exitDx=0;exitDy=0;" parent="1" source="xHMap3TiUOP78eLy4zno-27" target="sXvjfolYUnGrp_yOVfev-64" edge="1">
          <mxGeometry width="160" relative="1" as="geometry">
            <mxPoint x="230" y="-1804" as="sourcePoint"/>
            <mxPoint x="-375" y="-220" as="targetPoint"/>
          </mxGeometry>
        </mxCell>
        <mxCell id="xHMap3TiUOP78eLy4zno-90" value="Use" style="endArrow=open;endSize=12;dashed=1;html=1;entryX=0.5;entryY=0;entryDx=0;entryDy=0;exitX=0.5;exitY=1;exitDx=0;exitDy=0;" parent="1" source="xHMap3TiUOP78eLy4zno-31" target="sXvjfolYUnGrp_yOVfev-64" edge="1">
          <mxGeometry width="160" relative="1" as="geometry">
            <mxPoint x="-622" y="-1799" as="sourcePoint"/>
            <mxPoint x="-1227" y="-215" as="targetPoint"/>
          </mxGeometry>
        </mxCell>
        <mxCell id="xHMap3TiUOP78eLy4zno-91" value="Use" style="endArrow=open;endSize=12;dashed=1;html=1;entryX=0.5;entryY=0;entryDx=0;entryDy=0;exitX=0.5;exitY=1;exitDx=0;exitDy=0;" parent="1" source="xHMap3TiUOP78eLy4zno-1" target="sXvjfolYUnGrp_yOVfev-64" edge="1">
          <mxGeometry width="160" relative="1" as="geometry">
            <mxPoint x="250" y="-1784" as="sourcePoint"/>
            <mxPoint x="-355" y="-200" as="targetPoint"/>
          </mxGeometry>
        </mxCell>
        <mxCell id="xHMap3TiUOP78eLy4zno-93" value="&lt;p style=&quot;margin: 0px ; margin-top: 4px ; text-align: center&quot;&gt;&lt;b&gt;DataOverviewViewModel&lt;/b&gt;&lt;br&gt;&lt;/p&gt;&lt;hr size=&quot;1&quot;&gt;&lt;p style=&quot;margin: 0px ; margin-left: 4px&quot;&gt;+ TrainingsData: ObservableCollection&amp;lt;DBEntry&amp;gt;&lt;/p&gt;&lt;hr size=&quot;1&quot;&gt;&lt;p style=&quot;margin: 0px ; margin-left: 4px&quot;&gt;+ &amp;lt;&amp;lt;create&amp;gt;&amp;gt; DataOverviewViewModel()&lt;br&gt;&lt;/p&gt;&lt;p style=&quot;margin: 0px ; margin-left: 4px&quot;&gt;- init(): Task&amp;lt;void&amp;gt;&lt;br&gt;&lt;/p&gt;" style="verticalAlign=top;align=left;overflow=fill;fontSize=12;fontFamily=Helvetica;html=1;fillColor=#dae8fc;strokeColor=#6c8ebf;" parent="1" vertex="1">
          <mxGeometry x="579.5699999999999" y="-1851" width="300" height="90" as="geometry"/>
        </mxCell>
        <mxCell id="xHMap3TiUOP78eLy4zno-94" value="DataOverviewView" style="swimlane;fontStyle=1;align=center;verticalAlign=top;childLayout=stackLayout;horizontal=1;startSize=26;horizontalStack=0;resizeParent=1;resizeParentMax=0;resizeLast=0;collapsible=1;marginBottom=0;fillColor=#f5f5f5;strokeColor=#666666;fontColor=#333333;" parent="1" vertex="1">
          <mxGeometry x="579.5699999999999" y="-3110" width="260" height="102" as="geometry"/>
        </mxCell>
        <mxCell id="xHMap3TiUOP78eLy4zno-95" value="+ Heading: Label&#xa;+ Content: ListView&#xa;+ BindingContext: DataOverviewViewModel&#xa;&#xa;" style="text;strokeColor=#666666;fillColor=#f5f5f5;align=left;verticalAlign=top;spacingLeft=4;spacingRight=4;overflow=hidden;rotatable=0;points=[[0,0.5],[1,0.5]];portConstraint=eastwest;fontColor=#333333;" parent="xHMap3TiUOP78eLy4zno-94" vertex="1">
          <mxGeometry y="26" width="260" height="54" as="geometry"/>
        </mxCell>
        <mxCell id="xHMap3TiUOP78eLy4zno-96" value="" style="line;strokeWidth=1;fillColor=none;align=left;verticalAlign=middle;spacingTop=-1;spacingLeft=3;spacingRight=3;rotatable=0;labelPosition=right;points=[];portConstraint=eastwest;" parent="xHMap3TiUOP78eLy4zno-94" vertex="1">
          <mxGeometry y="80" width="260" as="geometry"/>
        </mxCell>
        <mxCell id="xHMap3TiUOP78eLy4zno-97" value="+ &lt;&lt;create&gt;&gt;DataOverviewView()&#xa;" style="text;strokeColor=#666666;fillColor=#f5f5f5;align=left;verticalAlign=top;spacingLeft=4;spacingRight=4;overflow=hidden;rotatable=0;points=[[0,0.5],[1,0.5]];portConstraint=eastwest;fontColor=#333333;" parent="xHMap3TiUOP78eLy4zno-94" vertex="1">
          <mxGeometry y="80" width="260" height="22" as="geometry"/>
        </mxCell>
        <mxCell id="xHMap3TiUOP78eLy4zno-101" value="" style="endArrow=none;html=1;entryX=0.5;entryY=1;entryDx=0;entryDy=0;exitX=0.5;exitY=0;exitDx=0;exitDy=0;" parent="1" source="xHMap3TiUOP78eLy4zno-93" target="xHMap3TiUOP78eLy4zno-94" edge="1">
          <mxGeometry width="50" height="50" relative="1" as="geometry">
            <mxPoint x="795" y="-1709" as="sourcePoint"/>
            <mxPoint x="790" y="-3005" as="targetPoint"/>
          </mxGeometry>
        </mxCell>
        <mxCell id="xHMap3TiUOP78eLy4zno-102" value="Use" style="endArrow=open;endSize=12;dashed=1;html=1;exitX=0.5;exitY=1;exitDx=0;exitDy=0;entryX=0.5;entryY=0;entryDx=0;entryDy=0;" parent="1" source="xHMap3TiUOP78eLy4zno-93" target="sXvjfolYUnGrp_yOVfev-64" edge="1">
          <mxGeometry width="160" relative="1" as="geometry">
            <mxPoint x="230" y="-1804" as="sourcePoint"/>
            <mxPoint x="-390" y="-230" as="targetPoint"/>
          </mxGeometry>
        </mxCell>
        <mxCell id="xHMap3TiUOP78eLy4zno-103" value="" style="endArrow=block;dashed=1;endFill=0;endSize=12;html=1;" parent="1" target="xHMap3TiUOP78eLy4zno-111" edge="1">
          <mxGeometry width="160" relative="1" as="geometry">
            <mxPoint x="1750" y="-1840" as="sourcePoint"/>
            <mxPoint x="2027.5" y="-2125" as="targetPoint"/>
            <Array as="points"/>
          </mxGeometry>
        </mxCell>
        <mxCell id="xHMap3TiUOP78eLy4zno-108" value="&lt;br&gt;SaveClicked (wird von OnPropertyChanged aufgerufen?):&amp;nbsp; holt sich den settingsService, ruft auf ihm ???? auf..&lt;br&gt;falls affectsEarables, muss auch noch mit Bib kommuniziert werden." style="shape=note;whiteSpace=wrap;html=1;size=14;verticalAlign=top;align=left;spacingTop=-6;" parent="1" vertex="1">
          <mxGeometry x="1600" y="-1601" width="353" height="80" as="geometry"/>
        </mxCell>
        <mxCell id="xHMap3TiUOP78eLy4zno-111" value="«interface»&lt;br&gt;&lt;b&gt;INotifyPropertyChanged&lt;/b&gt;" style="html=1;" parent="1" vertex="1">
          <mxGeometry x="1456.5" y="-2005" width="155" height="52" as="geometry"/>
        </mxCell>
        <mxCell id="xHMap3TiUOP78eLy4zno-112" value="slider nicht mit binding&lt;br&gt;samplingrate als dropdown" style="shape=note;whiteSpace=wrap;html=1;size=14;verticalAlign=top;align=left;spacingTop=-6;" parent="1" vertex="1">
          <mxGeometry x="1780" y="-1953" width="353" height="70" as="geometry"/>
        </mxCell>
        <mxCell id="xHMap3TiUOP78eLy4zno-117" value="" style="endArrow=block;dashed=1;endFill=0;endSize=12;html=1;" parent="1" source="19zNaoBCWBA3DrXbafvI-5" target="xHMap3TiUOP78eLy4zno-111" edge="1">
          <mxGeometry width="160" relative="1" as="geometry">
            <mxPoint x="1391.8669527897" y="-1846" as="sourcePoint"/>
            <mxPoint x="2044.121538739064" y="-2115" as="targetPoint"/>
            <Array as="points"/>
          </mxGeometry>
        </mxCell>
        <mxCell id="xHMap3TiUOP78eLy4zno-120" value="OnExportClicked: dialog path angeben, exportTrainingData,&lt;br&gt;OnImportClicked: dialog path angeben, importTrainingData,&lt;br&gt;OnDeleteClicked: fehlt noch in IDBCon&lt;br&gt;&lt;br&gt;filePicker?? - sagt mir benji" style="shape=note;whiteSpace=wrap;html=1;size=14;verticalAlign=top;align=left;spacingTop=-6;" parent="1" vertex="1">
          <mxGeometry x="720" y="-1681" width="359" height="80" as="geometry"/>
        </mxCell>
        <mxCell id="xHMap3TiUOP78eLy4zno-121" value="1" style="text;html=1;align=center;verticalAlign=middle;resizable=0;points=[];;labelBackgroundColor=#ffffff;" parent="1" vertex="1" connectable="0">
          <mxGeometry x="1375.666666666667" y="-919.7966666666662" as="geometry">
            <mxPoint as="offset"/>
          </mxGeometry>
        </mxCell>
        <mxCell id="xHMap3TiUOP78eLy4zno-122" value="" style="endArrow=none;html=1;" parent="1" source="19zNaoBCWBA3DrXbafvI-5" target="19zNaoBCWBA3DrXbafvI-1" edge="1">
          <mxGeometry width="50" height="50" relative="1" as="geometry">
            <mxPoint x="1285" y="-1846" as="sourcePoint"/>
            <mxPoint x="1285.500000000001" y="-3008" as="targetPoint"/>
          </mxGeometry>
        </mxCell>
        <mxCell id="xHMap3TiUOP78eLy4zno-123" value="" style="endArrow=none;html=1;" parent="1" source="19zNaoBCWBA3DrXbafvI-8" target="19zNaoBCWBA3DrXbafvI-3" edge="1">
          <mxGeometry width="50" height="50" relative="1" as="geometry">
            <mxPoint x="1744" y="-1846" as="sourcePoint"/>
            <mxPoint x="1745.500000000001" y="-3018" as="targetPoint"/>
          </mxGeometry>
        </mxCell>
        <mxCell id="xHMap3TiUOP78eLy4zno-124" value="Use" style="endArrow=open;endSize=12;dashed=1;html=1;entryX=0.5;entryY=0;entryDx=0;entryDy=0;exitX=0.5;exitY=1;exitDx=0;exitDy=0;" parent="1" target="sXvjfolYUnGrp_yOVfev-64" edge="1" source="19zNaoBCWBA3DrXbafvI-5">
          <mxGeometry width="160" relative="1" as="geometry">
            <mxPoint x="1290" y="-1644" as="sourcePoint"/>
            <mxPoint x="-375" y="-220" as="targetPoint"/>
          </mxGeometry>
        </mxCell>
        <mxCell id="xHMap3TiUOP78eLy4zno-125" value="Use" style="endArrow=open;endSize=12;dashed=1;html=1;entryX=0.5;entryY=0;entryDx=0;entryDy=0;" parent="1" source="19zNaoBCWBA3DrXbafvI-8" target="sXvjfolYUnGrp_yOVfev-64" edge="1">
          <mxGeometry width="160" relative="1" as="geometry">
            <mxPoint x="1585.119402985074" y="-1626" as="sourcePoint"/>
            <mxPoint x="-390" y="-230" as="targetPoint"/>
          </mxGeometry>
        </mxCell>
        <mxCell id="xHMap3TiUOP78eLy4zno-126" value="ScanningPopUpViewModel" style="swimlane;fontStyle=1;align=center;verticalAlign=top;childLayout=stackLayout;horizontal=1;startSize=26;horizontalStack=0;resizeParent=1;resizeParentMax=0;resizeLast=0;collapsible=1;marginBottom=0;fillColor=#dae8fc;strokeColor=#6c8ebf;" parent="1" vertex="1">
          <mxGeometry x="2110" y="-1848.5" width="470" height="214" as="geometry"/>
        </mxCell>
        <mxCell id="xHMap3TiUOP78eLy4zno-127" value="+isConnected : boolean" style="text;strokeColor=none;fillColor=#dae8fc;align=left;verticalAlign=top;spacingLeft=4;spacingRight=4;overflow=hidden;rotatable=0;points=[[0,0.5],[1,0.5]];portConstraint=eastwest;fontStyle=4" parent="xHMap3TiUOP78eLy4zno-126" vertex="1">
          <mxGeometry y="26" width="470" height="30" as="geometry"/>
        </mxCell>
        <mxCell id="xHMap3TiUOP78eLy4zno-128" value="" style="line;strokeWidth=1;fillColor=none;align=left;verticalAlign=middle;spacingTop=-1;spacingLeft=3;spacingRight=3;rotatable=0;labelPosition=right;points=[];portConstraint=eastwest;strokeColor=#7EA6E0;" parent="xHMap3TiUOP78eLy4zno-126" vertex="1">
          <mxGeometry y="56" width="470" height="4" as="geometry"/>
        </mxCell>
        <mxCell id="xHMap3TiUOP78eLy4zno-129" value="+ ScanDevicesCommand: ICommand&#xa;+ ConnectDeviceCommand : ICommand&#xa;+ CancelCommand : ICommand" style="text;strokeColor=none;fillColor=#dae8fc;align=left;verticalAlign=top;spacingLeft=4;spacingRight=4;overflow=hidden;rotatable=0;points=[[0,0.5],[1,0.5]];portConstraint=eastwest;" parent="xHMap3TiUOP78eLy4zno-126" vertex="1">
          <mxGeometry y="60" width="470" height="54" as="geometry"/>
        </mxCell>
        <mxCell id="xHMap3TiUOP78eLy4zno-130" value="" style="line;strokeWidth=1;fillColor=#dae8fc;align=left;verticalAlign=middle;spacingTop=-1;spacingLeft=3;spacingRight=3;rotatable=0;labelPosition=right;points=[];portConstraint=eastwest;strokeColor=#6c8ebf;" parent="xHMap3TiUOP78eLy4zno-126" vertex="1">
          <mxGeometry y="114" width="470" as="geometry"/>
        </mxCell>
        <mxCell id="xHMap3TiUOP78eLy4zno-131" value="+ &lt;&lt;create&gt;&gt; ScanningPopUpViewModel()&#xa;+ OnDeviceConnectionStateChanged(sender : object, args : DeviceEventArgs) : void&#xa;- ScanDevices() : void&#xa;- ConnectDevice() : void" style="text;align=left;verticalAlign=top;spacingLeft=4;spacingRight=4;overflow=hidden;rotatable=0;points=[[0,0.5],[1,0.5]];portConstraint=eastwest;fillColor=#dae8fc;strokeColor=none;fontStyle=0" parent="xHMap3TiUOP78eLy4zno-126" vertex="1">
          <mxGeometry y="114" width="470" height="60" as="geometry"/>
        </mxCell>
        <mxCell id="xHMap3TiUOP78eLy4zno-132" value="+ ShowPopUp() : void&#xa;+ HidePopUp() : void &#xa;" style="text;align=left;verticalAlign=top;spacingLeft=4;spacingRight=4;overflow=hidden;rotatable=0;points=[[0,0.5],[1,0.5]];portConstraint=eastwest;fillColor=#dae8fc;strokeColor=none;fontStyle=4" parent="xHMap3TiUOP78eLy4zno-126" vertex="1">
          <mxGeometry y="174" width="470" height="40" as="geometry"/>
        </mxCell>
        <mxCell id="xHMap3TiUOP78eLy4zno-134" value="PopUpScanningPage" style="swimlane;fontStyle=1;childLayout=stackLayout;horizontal=1;startSize=26;fillColor=#f5f5f5;horizontalStack=0;resizeParent=1;resizeParentMax=0;resizeLast=0;collapsible=1;marginBottom=0;strokeColor=#666666;fontColor=#333333;" parent="1" vertex="1">
          <mxGeometry x="2225.5" y="-3083" width="239" height="136" as="geometry"/>
        </mxCell>
        <mxCell id="xHMap3TiUOP78eLy4zno-135" value="+ Alert : Label&#xa;+ ScanDevices : Button&#xa;+ DevicesAvailable : ListView&#xa;+ ConnectButton : Button&#xa;+ Cancel : Button" style="text;strokeColor=#666666;fillColor=#f5f5f5;align=left;verticalAlign=top;spacingLeft=4;spacingRight=4;overflow=hidden;rotatable=0;points=[[0,0.5],[1,0.5]];portConstraint=eastwest;fontColor=#333333;" parent="xHMap3TiUOP78eLy4zno-134" vertex="1">
          <mxGeometry y="26" width="239" height="84" as="geometry"/>
        </mxCell>
        <mxCell id="xHMap3TiUOP78eLy4zno-136" value="+ &lt;&lt;create&gt;&gt; PopUpScanningPage()" style="text;strokeColor=#666666;fillColor=#f5f5f5;align=left;verticalAlign=top;spacingLeft=4;spacingRight=4;overflow=hidden;rotatable=0;points=[[0,0.5],[1,0.5]];portConstraint=eastwest;fontColor=#333333;" parent="xHMap3TiUOP78eLy4zno-134" vertex="1">
          <mxGeometry y="110" width="239" height="26" as="geometry"/>
        </mxCell>
        <mxCell id="xHMap3TiUOP78eLy4zno-137" value="Extends" style="endArrow=block;endSize=16;endFill=0;html=1;exitX=0.5;exitY=0;exitDx=0;exitDy=0;entryX=0.5;entryY=1;entryDx=0;entryDy=0;" parent="1" source="xHMap3TiUOP78eLy4zno-134" target="xHMap3TiUOP78eLy4zno-138" edge="1">
          <mxGeometry width="160" relative="1" as="geometry">
            <mxPoint x="2264" y="-3180" as="sourcePoint"/>
            <mxPoint x="2344" y="-3180" as="targetPoint"/>
          </mxGeometry>
        </mxCell>
        <mxCell id="xHMap3TiUOP78eLy4zno-138" value="&lt;p style=&quot;margin: 0px ; margin-top: 4px ; text-align: center&quot;&gt;&lt;b&gt;Rg.Plugins.Popup.PopupPage&lt;/b&gt;&lt;/p&gt;" style="verticalAlign=top;align=left;overflow=fill;fontSize=12;fontFamily=Helvetica;html=1;" parent="1" vertex="1">
          <mxGeometry x="2240.5" y="-3180" width="209" height="30" as="geometry"/>
        </mxCell>
        <mxCell id="xHMap3TiUOP78eLy4zno-139" value="Popup wird über Popupnavigation.Instance.PushAsync(new PopUpScanningPage())&lt;br&gt;angezeigt.&lt;br&gt;" style="shape=note;whiteSpace=wrap;html=1;size=14;verticalAlign=top;align=left;spacingTop=-6;" parent="1" vertex="1">
          <mxGeometry x="2536" y="-1995.5" width="238" height="70" as="geometry"/>
        </mxCell>
        <mxCell id="xHMap3TiUOP78eLy4zno-140" value="Commands sind mit dem Buttons im View verbunden. Werden im Konstruktor initialisiert" style="shape=note;whiteSpace=wrap;html=1;size=14;verticalAlign=top;align=left;spacingTop=-6;" parent="1" vertex="1">
          <mxGeometry x="2604" y="-1828.5" width="238" height="50" as="geometry"/>
        </mxCell>
        <mxCell id="xHMap3TiUOP78eLy4zno-141" value="onDeviceConnectionStateChanged zeigt entweder das Popup an bei einer Trennung des Devices, oder lässt es verschwinden bei korrekter Verbindung" style="shape=note;whiteSpace=wrap;html=1;size=14;verticalAlign=top;align=left;spacingTop=-6;" parent="1" vertex="1">
          <mxGeometry x="2594" y="-1708.5" width="238" height="60" as="geometry"/>
        </mxCell>
        <mxCell id="xHMap3TiUOP78eLy4zno-142" value="in anderen VM:&lt;br&gt;startVorgang:&lt;br&gt;if(!ScanningPopUpViewModel.IsConnected){&lt;br&gt;&amp;nbsp;ScanningPopUpViewModel.ShowScanningPopUp();&lt;br&gt;&amp;nbsp;return;&lt;br&gt;}&lt;br&gt;..." style="shape=note;whiteSpace=wrap;html=1;size=14;verticalAlign=top;align=left;spacingTop=-6;" parent="1" vertex="1">
          <mxGeometry x="2604" y="-1566" width="290" height="105" as="geometry"/>
        </mxCell>
        <mxCell id="xHMap3TiUOP78eLy4zno-143" value="ShowPopUp() und HidePopUp() sind static, sodass die anderen Viewmodels das PopUp anzeigen können" style="shape=note;whiteSpace=wrap;html=1;size=14;verticalAlign=top;align=left;spacingTop=-6;strokeColor=#000000;" parent="1" vertex="1">
          <mxGeometry x="2394" y="-1618.5" width="160" height="70" as="geometry"/>
        </mxCell>
        <mxCell id="xHMap3TiUOP78eLy4zno-144" value="" style="endArrow=none;html=1;entryX=0.5;entryY=0;entryDx=0;entryDy=0;" parent="1" source="xHMap3TiUOP78eLy4zno-134" target="xHMap3TiUOP78eLy4zno-126" edge="1">
          <mxGeometry relative="1" as="geometry">
            <mxPoint x="2320" y="-1888.5" as="sourcePoint"/>
            <mxPoint x="2480" y="-1888.5" as="targetPoint"/>
          </mxGeometry>
        </mxCell>
        <mxCell id="xHMap3TiUOP78eLy4zno-146" value="BindingContext" style="resizable=0;html=1;align=right;verticalAlign=bottom;labelBackgroundColor=#ffffff;fontSize=10;" parent="xHMap3TiUOP78eLy4zno-144" connectable="0" vertex="1">
          <mxGeometry x="1" relative="1" as="geometry"/>
        </mxCell>
        <mxCell id="xHMap3TiUOP78eLy4zno-147" value="Use" style="endArrow=open;endSize=12;dashed=1;html=1;exitX=0.5;exitY=1;exitDx=0;exitDy=0;entryX=0.5;entryY=0;entryDx=0;entryDy=0;" parent="1" source="xHMap3TiUOP78eLy4zno-126" target="sXvjfolYUnGrp_yOVfev-64" edge="1">
          <mxGeometry width="160" relative="1" as="geometry">
            <mxPoint x="2329.9953519256305" y="-1350" as="sourcePoint"/>
            <mxPoint x="-360" y="-270" as="targetPoint"/>
          </mxGeometry>
        </mxCell>
        <mxCell id="xHMap3TiUOP78eLy4zno-149" value="Viewmodel" style="text;strokeColor=none;fillColor=none;align=center;verticalAlign=top;spacingLeft=4;spacingRight=4;overflow=hidden;rotatable=0;points=[[0,0.5],[1,0.5]];portConstraint=eastwest;opacity=50;fontSize=60;fontStyle=1" parent="1" vertex="1">
          <mxGeometry x="-3230" y="-2503.5" width="330" height="78" as="geometry"/>
        </mxCell>
        <mxCell id="xHMap3TiUOP78eLy4zno-151" value="View" style="text;strokeColor=none;fillColor=none;align=center;verticalAlign=top;spacingLeft=4;spacingRight=4;overflow=hidden;rotatable=0;points=[[0,0.5],[1,0.5]];portConstraint=eastwest;opacity=50;fontSize=60;fontStyle=1" parent="1" vertex="1">
          <mxGeometry x="-3230" y="-3600" width="340" height="78" as="geometry"/>
        </mxCell>
        <mxCell id="19zNaoBCWBA3DrXbafvI-1" value="ImportExportPage" style="swimlane;fontStyle=1;childLayout=stackLayout;horizontal=1;startSize=26;fillColor=#f5f5f5;horizontalStack=0;resizeParent=1;resizeParentMax=0;resizeLast=0;collapsible=1;marginBottom=0;strokeColor=#666666;fontColor=#333333;" vertex="1" parent="1">
          <mxGeometry x="1185.67" y="-3100" width="190" height="100" as="geometry"/>
        </mxCell>
        <mxCell id="19zNaoBCWBA3DrXbafvI-2" value="+ ImportExportLabel: Label&#xa;+ DeleteData: Button&#xa;+ ExportData: Button&#xa;+ ImportData: Button " style="text;strokeColor=#666666;fillColor=#f5f5f5;align=left;verticalAlign=top;spacingLeft=4;spacingRight=4;overflow=hidden;rotatable=0;points=[[0,0.5],[1,0.5]];portConstraint=eastwest;fontColor=#333333;" vertex="1" parent="19zNaoBCWBA3DrXbafvI-1">
          <mxGeometry y="26" width="190" height="74" as="geometry"/>
        </mxCell>
        <mxCell id="19zNaoBCWBA3DrXbafvI-3" value="SettingsPage" style="swimlane;fontStyle=1;childLayout=stackLayout;horizontal=1;startSize=26;fillColor=#f5f5f5;horizontalStack=0;resizeParent=1;resizeParentMax=0;resizeLast=0;collapsible=1;marginBottom=0;strokeColor=#666666;fontColor=#333333;" vertex="1" parent="1">
          <mxGeometry x="1649" y="-3110" width="190" height="120" as="geometry"/>
        </mxCell>
        <mxCell id="19zNaoBCWBA3DrXbafvI-4" value="+ ImportExportLabel: Label&#xa;+ NameEntry: Entry&#xa;+ LanguagePicker: Picker&#xa;+ StepLengthEntry: Entry&#xa;+ SampleRatePicker: Picker&#xa;+ SaveButton: Button" style="text;strokeColor=#666666;fillColor=#f5f5f5;align=left;verticalAlign=top;spacingLeft=4;spacingRight=4;overflow=hidden;rotatable=0;points=[[0,0.5],[1,0.5]];portConstraint=eastwest;fontColor=#333333;" vertex="1" parent="19zNaoBCWBA3DrXbafvI-3">
          <mxGeometry y="26" width="190" height="94" as="geometry"/>
        </mxCell>
        <mxCell id="19zNaoBCWBA3DrXbafvI-5" value="ImportExportViewmodel" style="swimlane;fontStyle=1;align=center;verticalAlign=top;childLayout=stackLayout;horizontal=1;startSize=40;horizontalStack=0;resizeParent=1;resizeParentMax=0;resizeLast=0;collapsible=1;marginBottom=0;fillColor=#dae8fc;strokeColor=#6c8ebf;" vertex="1" parent="1">
          <mxGeometry x="1105.6699999999998" y="-1846" width="350" height="180" as="geometry"/>
        </mxCell>
        <mxCell id="19zNaoBCWBA3DrXbafvI-6" value="+Export: ICommand &#xa;+Import: ICommand &#xa;+Delete: ICommand " style="text;strokeColor=#6c8ebf;fillColor=#dae8fc;align=left;verticalAlign=top;spacingLeft=4;spacingRight=4;overflow=hidden;rotatable=0;points=[[0,0.5],[1,0.5]];portConstraint=eastwest;" vertex="1" parent="19zNaoBCWBA3DrXbafvI-5">
          <mxGeometry y="40" width="350" height="60" as="geometry"/>
        </mxCell>
        <mxCell id="19zNaoBCWBA3DrXbafvI-7" value="&#xa;- exportClicked(): void&#xa;- importClicked(): void&#xa;- deleteClicked(): void" style="text;strokeColor=#6c8ebf;fillColor=#dae8fc;align=left;verticalAlign=top;spacingLeft=4;spacingRight=4;overflow=hidden;rotatable=0;points=[[0,0.5],[1,0.5]];portConstraint=eastwest;" vertex="1" parent="19zNaoBCWBA3DrXbafvI-5">
          <mxGeometry y="100" width="350" height="80" as="geometry"/>
        </mxCell>
        <mxCell id="19zNaoBCWBA3DrXbafvI-8" value="SettingsViewmodel" style="swimlane;fontStyle=1;align=center;verticalAlign=top;childLayout=stackLayout;horizontal=1;startSize=40;horizontalStack=0;resizeParent=1;resizeParentMax=0;resizeLast=0;collapsible=1;marginBottom=0;fillColor=#dae8fc;strokeColor=#6c8ebf;" vertex="1" parent="1">
          <mxGeometry x="1569" y="-1848.5" width="350" height="200" as="geometry"/>
        </mxCell>
        <mxCell id="19zNaoBCWBA3DrXbafvI-9" value="- needsRestart: bool&#xa;+ Username: String&#xa;+ Steplength: int&#xa;+ SamplingRate: SamplingRate&#xa;+ Language: CultureInfo&#xa;+ ClickSave: Command" style="text;strokeColor=#6c8ebf;fillColor=#dae8fc;align=left;verticalAlign=top;spacingLeft=4;spacingRight=4;overflow=hidden;rotatable=0;points=[[0,0.5],[1,0.5]];portConstraint=eastwest;" vertex="1" parent="19zNaoBCWBA3DrXbafvI-8">
          <mxGeometry y="40" width="350" height="100" as="geometry"/>
        </mxCell>
        <mxCell id="19zNaoBCWBA3DrXbafvI-10" value="&lt;&lt;create&gt;&gt; SettingsViewModel(): void&#xa;+ SaveClicked(): void&#xa;" style="text;strokeColor=#6c8ebf;fillColor=#dae8fc;align=left;verticalAlign=top;spacingLeft=4;spacingRight=4;overflow=hidden;rotatable=0;points=[[0,0.5],[1,0.5]];portConstraint=eastwest;" vertex="1" parent="19zNaoBCWBA3DrXbafvI-8">
          <mxGeometry y="140" width="350" height="60" as="geometry"/>
        </mxCell>
        <mxCell id="19zNaoBCWBA3DrXbafvI-33" value="MasterDetailPage" style="html=1;" vertex="1" parent="1">
          <mxGeometry x="-2405" y="-3330" width="110" height="50" as="geometry"/>
        </mxCell>
        <mxCell id="19zNaoBCWBA3DrXbafvI-34" value="HomeMenuItem" style="swimlane;fontStyle=1;align=center;verticalAlign=top;childLayout=stackLayout;horizontal=1;startSize=26;horizontalStack=0;resizeParent=1;resizeParentMax=0;resizeLast=0;collapsible=1;marginBottom=0;" vertex="1" parent="1">
          <mxGeometry x="-2740" y="-2290" width="160" height="70" as="geometry"/>
        </mxCell>
        <mxCell id="19zNaoBCWBA3DrXbafvI-35" value="+ Title: string" style="text;strokeColor=none;fillColor=none;align=left;verticalAlign=top;spacingLeft=4;spacingRight=4;overflow=hidden;rotatable=0;points=[[0,0.5],[1,0.5]];portConstraint=eastwest;" vertex="1" parent="19zNaoBCWBA3DrXbafvI-34">
          <mxGeometry y="26" width="160" height="44" as="geometry"/>
        </mxCell>
        <mxCell id="19zNaoBCWBA3DrXbafvI-37" value="" style="endArrow=none;html=1;edgeStyle=orthogonalEdgeStyle;" edge="1" parent="1" source="19zNaoBCWBA3DrXbafvI-44" target="19zNaoBCWBA3DrXbafvI-34">
          <mxGeometry relative="1" as="geometry">
            <mxPoint x="-2830" y="-2924" as="sourcePoint"/>
            <mxPoint x="-2760" y="-2840" as="targetPoint"/>
            <Array as="points"/>
          </mxGeometry>
        </mxCell>
        <mxCell id="19zNaoBCWBA3DrXbafvI-40" value="&lt;p style=&quot;margin: 0px ; margin-top: 4px ; text-align: center&quot;&gt;&lt;/p&gt;&lt;p style=&quot;margin: 0px ; margin-left: 4px&quot;&gt;&lt;b&gt;Enum MenuItemType&lt;/b&gt;&lt;/p&gt;&lt;hr size=&quot;1&quot;&gt;&lt;p style=&quot;margin: 0px ; margin-left: 4px&quot;&gt;CountMode,&lt;/p&gt;&lt;p style=&quot;margin: 0px ; margin-left: 4px&quot;&gt;DataOverview,&lt;/p&gt;&lt;p style=&quot;margin: 0px ; margin-left: 4px&quot;&gt;ImportExport,&lt;/p&gt;&lt;p style=&quot;margin: 0px ; margin-left: 4px&quot;&gt;ListenAndPerform,&lt;/p&gt;&lt;p style=&quot;margin: 0px ; margin-left: 4px&quot;&gt;MusicMode,&lt;/p&gt;&lt;p style=&quot;margin: 0px ; margin-left: 4px&quot;&gt;Settings,&lt;/p&gt;&lt;p style=&quot;margin: 0px ; margin-left: 4px&quot;&gt;StepMode&lt;/p&gt;" style="verticalAlign=top;align=left;overflow=fill;fontSize=12;fontFamily=Helvetica;html=1;" vertex="1" parent="1">
          <mxGeometry x="-3090" y="-2320" width="160" height="130" as="geometry"/>
        </mxCell>
        <mxCell id="19zNaoBCWBA3DrXbafvI-41" value="" style="endArrow=block;endFill=1;html=1;edgeStyle=orthogonalEdgeStyle;align=left;verticalAlign=top;" edge="1" parent="1" source="19zNaoBCWBA3DrXbafvI-34" target="19zNaoBCWBA3DrXbafvI-40">
          <mxGeometry x="-1" relative="1" as="geometry">
            <mxPoint x="-2770" y="-2540" as="sourcePoint"/>
            <mxPoint x="-2610" y="-2540" as="targetPoint"/>
          </mxGeometry>
        </mxCell>
        <mxCell id="19zNaoBCWBA3DrXbafvI-42" value="1" style="resizable=0;html=1;align=left;verticalAlign=bottom;labelBackgroundColor=#ffffff;fontSize=10;" connectable="0" vertex="1" parent="19zNaoBCWBA3DrXbafvI-41">
          <mxGeometry x="-1" relative="1" as="geometry"/>
        </mxCell>
        <mxCell id="19zNaoBCWBA3DrXbafvI-43" value="1" style="text;html=1;align=center;verticalAlign=middle;resizable=0;points=[];;labelBackgroundColor=#ffffff;" vertex="1" connectable="0" parent="19zNaoBCWBA3DrXbafvI-41">
          <mxGeometry x="0.7651" y="2" relative="1" as="geometry">
            <mxPoint x="-4" y="-9" as="offset"/>
          </mxGeometry>
        </mxCell>
        <mxCell id="19zNaoBCWBA3DrXbafvI-44" value="MenuPage" style="swimlane;fontStyle=1;align=center;verticalAlign=top;childLayout=stackLayout;horizontal=1;startSize=26;horizontalStack=0;resizeParent=1;resizeParentMax=0;resizeLast=0;collapsible=1;marginBottom=0;" vertex="1" parent="1">
          <mxGeometry x="-2776" y="-3200" width="230" height="124" as="geometry"/>
        </mxCell>
        <mxCell id="19zNaoBCWBA3DrXbafvI-45" value="+ RootPage: MainPage&#xa;- menuItems: ArrayList&lt;HomeMenuItem&gt;&#xa;- ListView Menu" style="text;strokeColor=none;fillColor=none;align=left;verticalAlign=top;spacingLeft=4;spacingRight=4;overflow=hidden;rotatable=0;points=[[0,0.5],[1,0.5]];portConstraint=eastwest;" vertex="1" parent="19zNaoBCWBA3DrXbafvI-44">
          <mxGeometry y="26" width="230" height="64" as="geometry"/>
        </mxCell>
        <mxCell id="19zNaoBCWBA3DrXbafvI-46" value="" style="line;strokeWidth=1;fillColor=none;align=left;verticalAlign=middle;spacingTop=-1;spacingLeft=3;spacingRight=3;rotatable=0;labelPosition=right;points=[];portConstraint=eastwest;" vertex="1" parent="19zNaoBCWBA3DrXbafvI-44">
          <mxGeometry y="90" width="230" height="8" as="geometry"/>
        </mxCell>
        <mxCell id="19zNaoBCWBA3DrXbafvI-47" value="+ &lt;&lt;create&gt;&gt; MenuPage()" style="text;strokeColor=none;fillColor=none;align=left;verticalAlign=top;spacingLeft=4;spacingRight=4;overflow=hidden;rotatable=0;points=[[0,0.5],[1,0.5]];portConstraint=eastwest;" vertex="1" parent="19zNaoBCWBA3DrXbafvI-44">
          <mxGeometry y="98" width="230" height="26" as="geometry"/>
        </mxCell>
        <mxCell id="19zNaoBCWBA3DrXbafvI-48" value="Id" style="text;html=1;align=center;verticalAlign=middle;resizable=0;points=[];;autosize=1;" vertex="1" parent="1">
          <mxGeometry x="-2658.5" y="-2310" width="30" height="20" as="geometry"/>
        </mxCell>
        <mxCell id="19zNaoBCWBA3DrXbafvI-49" value="" style="endArrow=block;dashed=1;endFill=0;endSize=12;html=1;" edge="1" parent="1" source="19zNaoBCWBA3DrXbafvI-51" target="19zNaoBCWBA3DrXbafvI-33">
          <mxGeometry width="160" relative="1" as="geometry">
            <mxPoint x="-2470" y="-2940" as="sourcePoint"/>
            <mxPoint x="-2490" y="-3150" as="targetPoint"/>
            <Array as="points"/>
          </mxGeometry>
        </mxCell>
        <mxCell id="19zNaoBCWBA3DrXbafvI-50" value="Use (Navigation)" style="endArrow=open;endSize=12;dashed=1;html=1;" edge="1" parent="1" source="19zNaoBCWBA3DrXbafvI-44" target="19zNaoBCWBA3DrXbafvI-51">
          <mxGeometry x="-0.1123" y="9" width="160" relative="1" as="geometry">
            <mxPoint x="-2780" y="-3138" as="sourcePoint"/>
            <mxPoint x="-2870" y="-3138" as="targetPoint"/>
            <mxPoint as="offset"/>
          </mxGeometry>
        </mxCell>
        <mxCell id="19zNaoBCWBA3DrXbafvI-51" value="MainPage" style="swimlane;fontStyle=1;align=center;verticalAlign=top;childLayout=stackLayout;horizontal=1;startSize=26;horizontalStack=0;resizeParent=1;resizeParentMax=0;resizeLast=0;collapsible=1;marginBottom=0;" vertex="1" parent="1">
          <mxGeometry x="-2480" y="-3200" width="260" height="128" as="geometry"/>
        </mxCell>
        <mxCell id="19zNaoBCWBA3DrXbafvI-52" value="MenuPages: Dictionary&lt;int, NavigationPage&gt;&#xa;icon: navigationPage.Icon" style="text;strokeColor=none;fillColor=none;align=left;verticalAlign=top;spacingLeft=4;spacingRight=4;overflow=hidden;rotatable=0;points=[[0,0.5],[1,0.5]];portConstraint=eastwest;" vertex="1" parent="19zNaoBCWBA3DrXbafvI-51">
          <mxGeometry y="26" width="260" height="44" as="geometry"/>
        </mxCell>
        <mxCell id="19zNaoBCWBA3DrXbafvI-53" value="" style="line;strokeWidth=1;fillColor=none;align=left;verticalAlign=middle;spacingTop=-1;spacingLeft=3;spacingRight=3;rotatable=0;labelPosition=right;points=[];portConstraint=eastwest;" vertex="1" parent="19zNaoBCWBA3DrXbafvI-51">
          <mxGeometry y="70" width="260" height="8" as="geometry"/>
        </mxCell>
        <mxCell id="19zNaoBCWBA3DrXbafvI-54" value="+ &lt;&lt;create&gt;&gt; MainPage: void&#xa;+ NavigateFromMenu(int id): Task" style="text;strokeColor=none;fillColor=none;align=left;verticalAlign=top;spacingLeft=4;spacingRight=4;overflow=hidden;rotatable=0;points=[[0,0.5],[1,0.5]];portConstraint=eastwest;" vertex="1" parent="19zNaoBCWBA3DrXbafvI-51">
          <mxGeometry y="78" width="260" height="50" as="geometry"/>
        </mxCell>
        <mxCell id="19zNaoBCWBA3DrXbafvI-56" value="eigentlich hält die MainPage instanzen der ganzen anderen Pages. d.h. die werden nicht jedes mal neu instanziiert, sondern nur beim ersten aufrufen. dementsprechend sollte man da noch irgendwie uses-pfeile oder so rein machen." style="shape=step;perimeter=stepPerimeter;whiteSpace=wrap;html=1;fixedSize=1;fillColor=#FF8B6E;" vertex="1" parent="1">
          <mxGeometry x="-2133.5" y="-3240" width="223.5" height="150" as="geometry"/>
        </mxCell>
      </root>
    </mxGraphModel>
  </diagram>
</mxfile>
